<svg xmlns="http://www.w3.org/2000/svg" xmlns:xlink="http://www.w3.org/1999/xlink" data-name="Layer 1" width="1148" height="670.333333333333" style=""><rect id="backgroundrect" width="100%" height="100%" x="0" y="0" fill="none" stroke="none" class="" style=""/><defs><linearGradient id="cfa0a60b-5ab4-4641-b0a1-d873363a57d4" x1="0.4999725074052252" y1="1.0001278766171158" x2="0.4999725074052252" y2="0.00028093415764957015"><stop offset="0" stop-color="gray" stop-opacity="0.25"/><stop offset="0.54" stop-color="gray" stop-opacity="0.12"/><stop offset="1" stop-color="gray" stop-opacity="0.1"/></linearGradient><linearGradient id="5967c94a-14d1-46d5-9842-c9a5147905d0" x1="178.6199951171875" y1="535.3499755859375" x2="400.8399963378906" y2="535.3499755859375" xlink:href="#cfa0a60b-5ab4-4641-b0a1-d873363a57d4"/></defs><title>winners</title><g class="currentLayer" style=""><title>Layer 1</title><path d="M687.72,470.3100021362304 c22.1,-1.26 49.52,-16.25 70.84,-22.88 q37.85,-11.74 76,-22.59 q132.81,-37.79 268.47,-64.4 q12.66,-2.49 25.36,-4.86 a179.51,179.51 0 0 0 -59.26,-71.17 a182.06,182.06 0 0 0 1,-18.78 c0,-99.14 -79.23,-179.51 -177,-179.51 a174.18,174.18 0 0 0 -85.9,22.55 c-69.2,-45.52 -159.52,-73.07 -258.34,-73.07 c-140.42,0 -263.69,55.63 -333.54,139.4 L543.63,230.46000213623046 l201.34,34 c-229.53,6.85 -459.77,13.66 -688.64,-2.42 a181.42,181.42 0 0 0 -26.12,229 h0 c0,3.59 0.15000000000000002,7.15 0.42000000000000004,10.68 c5.83,1.6700000000000002 11.46,3.29 16.51,4.35 q121.61,25.69 244.78,43 c-60.51,37.31 -134.2,42.59 -204,58.39 c33.8,27.9 79.7,45 130.28,45 H971.32 c81.55,0 147.65,-56.77 147.65,-126.81 h0 a180.19,180.19 0 0 0 24,-65.89 C992.07,474.3300021362305 839.29,461.6800021362304 687.72,470.3100021362304 z" fill="#6c63ff" opacity="0.1" id="svg_1"/><path d="M1146.176516602436,412.42666481018045 a180,180 0 0 0 -76,-147.42 a184.71,184.71 0 0 0 1,-18.77 C1071.176516602436,147.09666481018047 991.9065166024361,66.7566648101805 894.1765166024361,66.7566648101805 a174.28,174.28 0 0 0 -85.91,22.54 C739.0665166024361,43.756664810180496 648.736516602436,16.1966648101805 549.9165166024361,16.1966648101805 C389.1765166024361,16.1966648101805 250.81651660243608,89.14666481018048 189.4565166024361,193.7566648101805 c-3.41,-0.2 -6.84,-0.3100000000000006 -10.3,-0.3100000000000006 c-97.74,0 -177,80.37 -177,179.51 a180.53,180.53 0 0 0 29.12,98.67 h0 c0,89.2 84.19,161.51 188,161.51 H972.4165166024361 c81.54,0 147.64,-56.78 147.64,-126.82 h0 A180.52,180.52 0 0 0 1146.176516602436,412.42666481018045 z" fill="#6c63ff" opacity="0.1" id="svg_2" class=""/><path d="M934.28,319.95000213623047 a11.14,11.14 0 0 0 -4.88,-2.14 c-1.87,-0.43000000000000005 -3.7800000000000002,-0.7000000000000001 -5.68,-1 L899.1,313.26000213623047 a29,29 0 0 0 -7.54,-0.4 A9.57,9.57 0 0 0 885,316.26000213623047 a5.11,5.11 0 0 0 -1.1400000000000001,3.2 a8.44,8.44 0 0 0 1.12,3.3200000000000003 a11.1,11.1 0 0 1 0.6100000000000001,1.47 a33.6,33.6 0 0 0 0.8800000000000001,3.35 a2.84,2.84 0 0 0 0.42000000000000004,0.6600000000000001 a1.09,1.09 0 0 1 0,0.17 c-0.27,1.3800000000000001 0.6000000000000001,2.8200000000000003 0.21000000000000002,4.15 c-0.3400000000000001,1.1400000000000001 -1.45,1.83 -2.15,2.7800000000000002 a4.18,4.18 0 0 0 -0.1,4.61 c0.7500000000000001,1.1600000000000001 2.11,1.9500000000000002 2.5,3.2800000000000002 c0.51,1.75 -0.8700000000000001,3.44 -2.1,4.79 a74.23,74.23 0 0 0 -6.26,7.890000000000001 a4.890000000000001,4.890000000000001 0 0 0 -1,2.35 c-0.11000000000000001,1.7400000000000002 1.56,3.27 1.27,5 c-0.23,1.36 -1.56,2.19 -2.71,3 c-4.25,2.8 -7.66,7.3 -8,12.39 a43.4,43.4 0 0 0 -9.68,-22 c-1.4300000000000002,-1.7200000000000002 -3,-3.45 -3.59,-5.63 c-0.22000000000000003,-0.8700000000000001 -0.26,-1.8 -0.56,-2.64 c-1,-2.6500000000000004 -4.18,-3.79 -5.57,-6.23 c-1,-1.7200000000000002 -1,-3.93 -2.24,-5.44 s-3.19,-1.85 -4.26,-3.31 a21.18,21.18 0 0 1 -1.36,-3.08 a6.73,6.73 0 0 0 -1.85,-2.22 a5.4,5.4 0 0 0 -0.46,-0.33000000000000007 a1.59,1.59 0 0 0 0.53,-1.18 c0,-1.17 -1.1600000000000001,-1.94 -2.17,-2.52 c-1.3,-0.7400000000000001 -2.5700000000000003,-1.54 -3.81,-2.37 a8.91,8.91 0 0 0 3.41,-2.79 a9.17,9.17 0 0 0 1.3,-6 a7.57,7.57 0 0 0 -1.79,-4.59 c-0.6300000000000001,-0.6700000000000002 -1.42,-1.15 -2.08,-1.78 c-1.71,-1.6700000000000002 -2.29,-4.14 -3,-6.42 c-0.9400000000000001,-3 -2.41,-6.15 -5.15,-7.74 c-1.32,-0.77 -2.8600000000000003,-1.13 -4.15,-1.94 s-2.37,-2.34 -1.92,-3.81 c0.30000000000000004,-1 1.23,-1.6900000000000002 1.86,-2.54 a5.06,5.06 0 0 0 -1.27,-7 c-0.7400000000000001,-0.47000000000000003 -1.6500000000000001,-0.8800000000000001 -1.8,-1.7400000000000002 a3.18,3.18 0 0 1 -2.3200000000000003,-2.46 a9.48,9.48 0 0 1 0,-3.56 q0.39000000000000007,-2.79 0.77,-5.5600000000000005 a3.62,3.62 0 0 0 2.7800000000000002,0 a24.48,24.48 0 0 0 3,3.92 a39.17,39.17 0 0 1 7,12.15 c0.5700000000000001,1.6 1.15,3.39 2.63,4.24 c0.51,0.29000000000000004 1.09,0.44000000000000006 1.59,0.7500000000000001 a5.94,5.94 0 0 1 1.56,1.6 c1.2,1.59 2.4,3.17 3.59,4.76 l0.06000000000000001,0.24000000000000002 a1.4,1.4 0 0 0 0.16000000000000003,0.4 a1.33,1.33 0 0 0 0.8600000000000001,0.44000000000000006 c3.68,0.8500000000000001 7.8100000000000005,1.6300000000000001 11,-0.38000000000000006 c2.88,-1.8 4.14,-5.36 6.58,-7.74 c1.73,-1.6900000000000002 4.18,-3 4.67,-5.38 a17.7,17.7 0 0 1 -1.7200000000000002,-0.6300000000000001 c0.5,-0.5 1,-1.08 1.6800000000000002,-1.7400000000000002 a21.18,21.18 0 0 0 2.66,-3.17 a20.43,20.43 0 0 0 2,-4.48 q2.89,-8.24 5.8,-16.49 c0.92,-2.6 1.84,-5.22 3,-7.75 c1.2,-2.74 2.62,-5.37 3.93,-8.06 A107,107 0 0 0 888,214.57000213623047 a8,8 0 0 0 0.31000000000000005,-3.19 c-0.28,-1.73 -1.59,-3.09 -2.84,-4.32 a20.84,20.84 0 0 0 -4.26,-3.5300000000000002 a7,7 0 0 0 -5.34,-0.8600000000000001 c-2.56,0.7500000000000001 -4.17,3.37 -4.76,6 s-0.37000000000000005,5.34 -0.6200000000000001,8 c-0.36000000000000004,3.85 -1.6800000000000002,7.57 -2,11.43 c-0.17,2.23 0,4.49 -0.27,6.72 a24.52,24.52 0 0 1 -3,8.28 a53.6,53.6 0 0 1 -12.93,15.94 c-0.6100000000000001,0.51 -1.24,1 -1.84,1.55 c0,-0.43000000000000005 0.07,-0.8700000000000001 0.13,-1.3 a7.84,7.84 0 0 0 -1.27,0.45 a3.81,3.81 0 0 0 -0.15000000000000002,-1.5 c-0.8,-2.39 -4.36,-3 -5,-5.43 a11.1,11.1 0 0 1 -0.17,-1.82 c-0.21000000000000002,-2.13 -1.6600000000000001,-3.93 -2.16,-6 c-0.46,-1.9100000000000001 -0.11000000000000001,-4 -1,-5.77 a16.13,16.13 0 0 0 -2.66,-3 a11.77,11.77 0 0 1 -2.5300000000000002,-4.77 c-0.13,-0.49000000000000005 -0.25,-1 -0.39000000000000007,-1.49 a6.82,6.82 0 0 0 -0.36000000000000004,-3.29 c-0.91,-2.26 -3.26,-3.71 -4.11,-6 c-0.6600000000000001,-1.78 -0.37000000000000005,-4 -1.62,-5.38 a5.85,5.85 0 0 0 -2.37,-1.4300000000000002 a52.73,52.73 0 0 0 -14.27,-3.37 c-2.74,-0.25 -5.76,-0.39000000000000007 -7.72,-2.3200000000000003 c-2.29,-2.24 -2.4,-6.27 -5.08,-8 c-2.36,-1.53 -5.7,-0.4 -7.53,1.75 a9.53,9.53 0 0 0 -0.7600000000000001,1 a10.7,10.7 0 0 1 -0.21000000000000002,-4.1 c0,-0.3400000000000001 0.07,-0.6900000000000002 0.1,-1 A20,20 0 0 0 802.16,189.26000213623047 s0,0 0,0.06000000000000001 l0.12000000000000001,0.31000000000000005 c0.29000000000000004,0.7300000000000001 0.7500000000000001,1.4300000000000002 1.4300000000000002,1.51 h0 a2,2 0 0 0 1.24,-0.45 a10.27,10.27 0 0 0 1.6600000000000001,-1.44 q0.38000000000000006,-0.42000000000000004 0.7200000000000001,-0.8700000000000001 a11.33,11.33 0 0 0 1.18,-2 a11.88,11.88 0 0 0 1,-3.35 c0.18000000000000002,-1.1600000000000001 0.2,-2.35 0.4,-3.51 a21.61,21.61 0 0 1 0.7300000000000001,-2.6500000000000004 c0.1,-0.29000000000000004 0.2,-0.5800000000000001 0.29000000000000004,-0.8700000000000001 s0.22000000000000003,-0.6800000000000002 0.32000000000000006,-1 a23.17,23.17 0 0 0 1,-6.34 q0,-0.54 0,-1.08 a10.55,10.55 0 0 0 -3.36,-7.45 c-1.7200000000000002,-1.4100000000000001 -4,-2 -5.26,-3.91 c-0.8200000000000001,-1.28 -1,-2.93 -1.48,-4.43 a10,10 0 0 0 -7.86,-7.07 a8.75,8.75 0 0 0 -6.22,1.71 h0 l-0.14,0.11000000000000001 h0 a10,10 0 0 0 -2.48,2.7600000000000002 a8.25,8.25 0 0 1 -3.52,-2 c-1,-0.93 -1.77,-2.1 -2.7800000000000002,-3 a7.15,7.15 0 0 0 -7.12,-1.5 a8.51,8.51 0 0 0 -5.09,5.83 c-0.55,2.06 -0.45,4.43 -1.6,6.15 c-0.8900000000000001,1.34 -2.35,2 -3.37,3.22 a6.06,6.06 0 0 0 -1.26,2.67 h0 a7.23,7.23 0 0 0 -0.17,1.6700000000000002 v0 c0,0.25 0,0.5 0.06000000000000001,0.7400000000000001 c0,0 0,0.08000000000000002 0,0.12000000000000001 a5.29,5.29 0 0 0 0.17,0.81 h0 a7,7 0 0 0 1.49,2.74 a6.58,6.58 0 0 0 2.41,1.7400000000000002 a9.76,9.76 0 0 0 1.1600000000000001,0.37000000000000005 l1.19,0.27 l0.42000000000000004,0.1 a19.94,19.94 0 0 0 -0.56,17.61 c0,0.28 -0.07,0.56 -0.1,0.8400000000000001 a69.17,69.17 0 0 0 0.52,11.79 c0.14,1.55 0.22000000000000003,3.26 -0.7300000000000001,4.49 a8.52,8.52 0 0 1 -1.45,1.29 c0.54,-0.7000000000000001 1.09,-1.3900000000000001 1.6500000000000001,-2.08 c-1.4100000000000001,-1.42 -3.64,-1.6 -5.640000000000001,-1.46 a26.13,26.13 0 0 0 -11,3.36 c-2.24,1.29 -4.54,3 -7.1,2.7 c-1.51,-0.17 -3,-1 -4.47,-0.6000000000000001 a9.06,9.06 0 0 0 -2.29,1.36 a3.1,3.1 0 0 1 -1.8800000000000001,0.5800000000000001 c-1.57,-1.9300000000000002 -4,-3.24 -5.88,-4.8100000000000005 a46.33,46.33 0 0 1 -5.85,-6.27 c-3.24,-3.91 -6.47,-7.83 -9.65,-11.78 c-2.68,-3.3200000000000003 -5.43,-6.91 -5.9,-11.16 a10.93,10.93 0 0 1 -0.07,-1.27 a32.3,32.3 0 0 1 0.7600000000000001,-6 a3,3 0 0 0 0,-1.45 c-0.30000000000000004,-1 -1.45,-1.37 -2.44,-1.59 h0 c0.13,-0.77 0.22000000000000003,-1.56 0.27,-2.31 c0.56,-8.6 -0.05000000000000001,-17.34 1.77,-25.76 c0.6900000000000002,-3.24 1.82,-6.52 4.15,-8.870000000000001 c3.6500000000000004,-3.6900000000000004 9.76,-4.58 12.56,-8.95 c2.34,-3.64 1.4100000000000001,-8.79 -1.53,-12 s-7.47,-4.52 -11.78,-4.36 a6.08,6.08 0 0 0 -3.43,0.92 a7.29,7.29 0 0 0 -2.08,3.16 L701,117.04000213623047 a63.08,63.08 0 0 0 -3.14,8.38 c-1.2,4.38 -1.47,9 -2.42,13.42 c0,3.4 -2.19,7.640000000000001 -3.39,10.77 c-1.34,3.52 -2.79,7 -4,10.59 c-0.30000000000000004,0.9 -1.35,3.5700000000000003 -2,6 a3.66,3.66 0 0 0 -0.6800000000000002,0.51 a18.09,18.09 0 0 0 -1.42,2.11 c-0.91,1.2 -2.39,1.84 -3.39,3 s-1.21,3.29 0.18000000000000002,3.87 a4.08,4.08 0 0 0 0.8700000000000001,0.19000000000000003 a3.38,3.38 0 0 1 0.54,0.09000000000000002 c1.5,0.42000000000000004 2.09,2.31 1.87,3.87 s-1,3 -1.13,4.5600000000000005 c-0.27,2.7600000000000002 1.35,5.33 2.91,7.65 a65.94,65.94 0 0 0 5.34,7.19 c1.4100000000000001,1.58 3,3 4.42,4.52 c5.41,5.5600000000000005 9.71,12.06 14.57,18.1 a40.13,40.13 0 0 0 5.93,6.22 a44.65,44.65 0 0 0 4.49,3.09 l8.36,5.3 a9.16,9.16 0 0 0 3.16,1.49 a4.2,4.2 0 0 0 1.12,0 c0.05000000000000001,0.25 0.09000000000000002,0.49000000000000005 0.15000000000000002,0.7400000000000001 c0.6500000000000001,2.62 2.08,5 2.24,7.67 s-0.08000000000000002,5.4 0.11000000000000001,8.1 c0.18000000000000002,2.49 0.7300000000000001,5 0.8700000000000001,7.45 c0.28,4.72 -0.8800000000000001,9.38 -2,14 c-1.6900000000000002,6.76 -2.71,13.66 -6,19.79 c-0.92,1.6900000000000002 -2,3.41 -2,5.34 c0,0.23 0,0.47000000000000003 0.06000000000000001,0.7000000000000001 h0 l-1.5,0.8500000000000001 c-0.44000000000000006,0.25 -0.8800000000000001,0.5 -1.28,0.7600000000000001 c-1.9,1.24 -3.93,2.6100000000000003 -4.71,4.75 c-0.6300000000000001,1.73 -0.3400000000000001,3.71 -1.1,5.39 a2.39,2.39 0 0 1 -0.12000000000000001,0.22000000000000003 c-0.8,1.56 -2.39,2.72 -2.75,4.43 v0 c-0.27,1.31 0.25,2.7 0,4 c0,0 0,0 0,0.05000000000000001 a14.47,14.47 0 0 0 -0.54,2 a2.39,2.39 0 0 0 0.06000000000000001,0.6600000000000001 a3.81,3.81 0 0 0 1.2,1.9500000000000002 a8,8 0 0 0 1.17,0.93 q0.6400000000000001,0.42000000000000004 1.32,0.78 l0.26,0.14 c0.38000000000000006,0.2 0.7600000000000001,0.39000000000000007 1.15,0.5700000000000001 l0.26,0.11000000000000001 c0.45,0.2 0.91,0.38000000000000006 1.37,0.54 l0.32000000000000006,0.1 c0.36000000000000004,0.12000000000000001 0.7300000000000001,0.23 1.1,0.32000000000000006 l0.25,0.08000000000000002 l0.23,0.05000000000000001 l1,0.21000000000000002 l0.37000000000000005,0.07 q0.6600000000000001,0.11000000000000001 1.35,0.18000000000000002 l0.4,0 c0.3400000000000001,0 0.6700000000000002,0.05000000000000001 1,0.06000000000000001 h0.47000000000000003 c0.35000000000000003,0 0.6900000000000002,0 1,0 h0.36000000000000004 c0.47000000000000003,0 0.9400000000000001,-0.07 1.4100000000000001,-0.13 l0.15000000000000002,0 c0.42000000000000004,-0.06000000000000001 0.8400000000000001,-0.13 1.26,-0.22000000000000003 l0.32000000000000006,-0.07 c0.39000000000000007,-0.09000000000000002 0.78,-0.18000000000000002 1.17,-0.30000000000000004 l0.21000000000000002,-0.06000000000000001 c0.47000000000000003,-0.14 0.9400000000000001,-0.29000000000000004 1.4,-0.47000000000000003 a36.74,36.74 0 0 0 4.62,-2.29 c1,-0.55 2,-1.11 3,-1.62 a23.29,23.29 0 0 1 2.2800000000000002,-1 a12.870000000000001,12.870000000000001 0 0 1 6,-1 a23.5,23.5 0 0 1 3,0.6100000000000001 c0,0.11000000000000001 0,0.22000000000000003 0,0.33000000000000007 q1.22,7.2 2.41,14.4 a29.32,29.32 0 0 1 4.14,-2.49 a9.21,9.21 0 0 0 -0.53,2.25 a8.92,8.92 0 0 0 0,1.79 c0.09000000000000002,0.9500000000000001 0.29000000000000004,2 -0.28,2.75 c-0.35000000000000003,0.46 -1,0.7200000000000001 -1.19,1.24 a4.23,4.23 0 0 0 -0.1,1.6300000000000001 a2.6,2.6 0 0 1 -2.38,2.42 a3.8,3.8 0 0 1 -1.51,4.46 a5.28,5.28 0 0 0 -1.1600000000000001,0.7600000000000001 a3.46,3.46 0 0 0 -0.6700000000000002,1.51 a26.72,26.72 0 0 1 -7.83,12.870000000000001 a25.17,25.17 0 0 0 -3.87,3.7800000000000002 a17.21,17.21 0 0 0 -1.75,3.45 q-4,9.78 -8.12,19.57 c-1.52,3.6500000000000004 -3,7.36 -3.48,11.29 c-1.2,10.78 -10.8,19.92 -9,30.62 a15,15 0 0 0 3.12,7.3100000000000005 c2,2.41 5,3.79 8,4.91 c7.71,3 15.84,4.640000000000001 23.94,6.29 l12.72,2.6100000000000003 a55.6,55.6 0 0 0 7.58,1.2 c3.07,0.21000000000000002 6.22,-0.08000000000000002 9.21,0.7000000000000001 c1.85,0.48000000000000004 3.62,1.37 5.53,1.47 c1.6400000000000001,0.09000000000000002 3.66,-0.26 4.63,1.08 s0.22000000000000003,3.11 1.1400000000000001,4.3 c1.48,1.8900000000000001 5.09,0 6.7,1.78 a8.29,8.29 0 0 1 1,2.21 a4,4 0 0 0 1,1.26 a8.45,8.45 0 0 1 0.12000000000000001,1.71 a29.49,29.49 0 0 1 -1.44,6.82 q-1.8,6.09 -3.59,12.19 a27,27 0 0 0 -1,4.4 a10.57,10.57 0 0 0 0,2.18 c0.21000000000000002,2.21 1.48,4.49 3.59,5.21 a6.58,6.58 0 0 0 4.86,-0.6000000000000001 a21.48,21.48 0 0 0 4,-2.7 a27.31,27.31 0 0 0 5.77,-5.94 c5,-7.48 3.38,-17.6 6.890000000000001,-25.87 c2.33,-5.52 6.87,-10 8.38,-15.82 a6.33,6.33 0 0 0 0.12000000000000001,-3.42 c-0.6300000000000001,-2 -2.7600000000000002,-3.14 -4.75,-3.8600000000000003 l-0.09000000000000002,0 a41,41 0 0 0 -5,-1.4300000000000002 c-0.42000000000000004,-0.09000000000000002 -0.8500000000000001,-0.16000000000000003 -1.28,-0.23 a7.85,7.85 0 0 1 -2.21,-2.88 a6.7,6.7 0 0 0 -0.47000000000000003,-1.73 a1.8,1.8 0 0 0 -1.44,-0.8 c-1,-0.1 -2.34,0.26 -3.43,0.18000000000000002 c-2.23,-0.16000000000000003 -3.71,-2.35 -5.71,-3.36 s-4.17,-0.7600000000000001 -6.3,-0.6100000000000001 a5.83,5.83 0 0 1 -2.2800000000000002,-0.14 a8.57,8.57 0 0 1 -2.4,-1.6500000000000001 a10.06,10.06 0 0 0 -8.81,-1.77 a9.6,9.6 0 0 1 -3,0.6800000000000002 c-1.9500000000000002,-0.11000000000000001 -3.33,-1.85 -4.77,-3.17 c-3.94,-3.6100000000000003 -9.55,-4.5600000000000005 -14.33,-6.93 a3.27,3.27 0 0 1 -1.7200000000000002,-1.48 c-0.55,-1.36 0.6900000000000002,-2.72 1.81,-3.6500000000000004 l8.22,-6.83 c9,-7.48 20.25,-13.11 24.43,-24.08 a13.93,13.93 0 0 1 2,-4.11 a5.58,5.58 0 0 1 1.11,-1 a8.4,8.4 0 0 1 6.15,-1.2 a20.77,20.77 0 0 1 7.24,3.16 q5.37,3.25 10.45,7 A92.45,92.45 0 0 1 834,398.26000213623047 c5.25,5 9.620000000000001,10.93 14.51,16.32 s10.48,10.42 17.27,13 s15,2.47 20.83,-1.86 c6.73,-5 8.89,-13.94 10.59,-22.14 c3.75,-3.62 4.88,-9.13 6.71,-14 c1.15,-3.09 2.62,-6 3.8600000000000003,-9.08 c1.48,-3.62 2.64,-7.36 3.8,-11.09 a53.33,53.33 0 0 0 2.66,-11.57 c0.48000000000000004,-6.23 -1.19,-12.86 0.56,-18.71 c2.31,-0.51 4.41,-1.81 6.68,-2.5700000000000003 c3.38,-1.11 7,-0.93 10.58,-0.91 h0.23 a5.46,5.46 0 0 0 3.52,-0.8300000000000001 c1.2,-1 1.3900000000000001,-2.71 1.45,-4.26 C937.39,326.7300021362305 937.15,322.4300021362305 934.28,319.95000213623047 zM789.39,149.37000213623048 a7.43,7.43 0 0 1 -2.5300000000000002,0.18000000000000002 z" fill="url(#cfa0a60b-5ab4-4641-b0a1-d873363a57d4)" id="svg_3"/><path d="M793.33,212.63000213623047 a11,11 0 0 1 -4.16,2.21 l-7.09,2.54 c-3.85,1.3800000000000001 -7.87,2.77 -11.93,2.27 c-2.27,-0.28 -12,-1.71 -13.47,-3.48 c-2.24,-2.74 5.61,-6.77 8.29,-9.08 a11.34,11.34 0 0 0 1.6800000000000002,-1.48 c1,-1.22 0.8700000000000001,-2.93 0.7300000000000001,-4.47 a69,69 0 0 1 -0.52,-11.77 a23.72,23.72 0 0 1 0.4,-2.79 c1,-4.6 5.28,-2.92 8.66,-1.7000000000000002 a67.71,67.71 0 0 1 11.75,5.09 a8.43,8.43 0 0 1 2.9,2.46 c1.48,2.24 0.8900000000000001,5.18 0.6500000000000001,8 c-0.21000000000000002,2.19 -0.2,4.29 1.17,5.88 a15.14,15.14 0 0 1 1.8900000000000001,2 A3.75,3.75 0 0 1 793.33,212.63000213623047 z" fill="#be6f72" id="svg_4"/><path d="M695.39,140.56000213623048 c1,-4.43 1.22,-9 2.42,-13.39 a62.69,62.69 0 0 1 3.14,-8.35 l4.41,-10.29 a7.26,7.26 0 0 1 2.08,-3.15 a6.16,6.16 0 0 1 3.43,-0.92 c4.3100000000000005,-0.16000000000000003 8.84,1.18 11.78,4.35 s3.87,8.3 1.53,11.93 c-2.8,4.37 -8.91,5.25 -12.56,8.93 c-2.33,2.35 -3.46,5.62 -4.15,8.85 c-1.82,8.4 -1.21,17.11 -1.77,25.69 c-0.18000000000000002,2.67 -0.7000000000000001,5.72 -3,7.1 a8.75,8.75 0 0 1 -4.48,0.8700000000000001 l-6.5600000000000005,0.11000000000000001 c-1.1,0 -5.09,0.6900000000000002 -5.82,-0.14 c-1.28,-1.45 1.6400000000000001,-8.67 2.17,-10.28 c1.18,-3.5700000000000003 2.63,-7.05 4,-10.56 C693.2,148.18000213623048 695.39,143.95000213623047 695.39,140.56000213623048 z" fill="#be6f72" id="svg_5"/><path d="M830.84,454.7200021362305 c-1.51,5.78 -6.05,10.28 -8.38,15.79 c-3.51,8.25 -1.9300000000000002,18.34 -6.890000000000001,25.8 A27.26,27.26 0 0 1 809.8,502.26000213623047 a21.43,21.43 0 0 1 -4,2.6900000000000004 a6.58,6.58 0 0 1 -4.86,0.6000000000000001 c-2.11,-0.7200000000000001 -3.38,-3 -3.59,-5.2 a10.49,10.49 0 0 1 0,-2.17 a26.89,26.89 0 0 1 1,-4.39 q1.8,-6.07 3.59,-12.16 a29.44,29.44 0 0 0 1.44,-6.8 c0.13,-2.52 -1.47,-5.8 -0.79,-8.15 c0.31000000000000005,-1.06 1.47,-2 2,-2.89 a16.73,16.73 0 0 0 1.7200000000000002,-4.09 c0.8200000000000001,-2.79 1.3800000000000001,-5.77 3.1,-8.12 a19.06,19.06 0 0 1 3.9,-3.6500000000000004 a10.34,10.34 0 0 1 3.72,-2.09 a9.11,9.11 0 0 1 4,0.19000000000000003 a39.25,39.25 0 0 1 5,1.42 l0.09000000000000002,0 c2,0.7200000000000001 4.12,1.83 4.75,3.85 A6.29,6.29 0 0 1 830.84,454.7200021362305 z" fill="#3f3d56" id="svg_6"/><path d="M937.24,331.78000213623045 c-0.06000000000000001,1.55 -0.25,3.2800000000000002 -1.45,4.25 a5.46,5.46 0 0 1 -3.52,0.8300000000000001 H932 c-3.5700000000000003,0 -7.2,-0.2 -10.58,0.91 c-2.5700000000000003,0.8500000000000001 -4.93,2.41 -7.61,2.72 c-3.6900000000000004,0.42000000000000004 -7.16,-1.6 -10.43,-3.36 a103.75,103.75 0 0 0 -9.47,-4.5 c-2.12,-0.8700000000000001 -6.45,-1.4300000000000002 -7.47,-3.75 a34.14,34.14 0 0 1 -0.8800000000000001,-3.34 a11.1,11.1 0 0 0 -0.6100000000000001,-1.47 a8.45,8.45 0 0 1 -1.12,-3.31 a5.11,5.11 0 0 1 1.1400000000000001,-3.2 a9.59,9.59 0 0 1 6.55,-3.37 a29,29 0 0 1 7.54,0.4 l24.62,3.54 c1.9,0.27 3.81,0.54 5.68,1 a11.14,11.14 0 0 1 4.88,2.14 C937.15,323.71000213623046 937.39,328.0000021362305 937.24,331.78000213623045 z" fill="#3f3d56" id="svg_7"/><path d="M915.6,340.84666888237 c-3,6.33 -0.8400000000000003,13.82 -1.3800000000000001,20.82 a53.07,53.07 0 0 1 -2.66,11.54 c-1.1600000000000001,3.72 -2.3200000000000003,7.45 -3.8,11.06 c-1.24,3 -2.71,6 -3.8600000000000003,9.06 c-1.83,4.88 -3,10.37 -6.71,14 c-1.7000000000000002,8.18 -3.8600000000000003,17.12 -10.59,22.08 c-5.85,4.32 -14,4.47 -20.83,1.86 s-12.38,-7.61 -17.27,-13 s-9.26,-11.26 -14.51,-16.28 a91,91 0 0 0 -9.57,-7.83 q-5.08,-3.6900000000000004 -10.45,-6.94 a20.93,20.93 0 0 0 -7.24,-3.15 a8.4,8.4 0 0 0 -6.15,1.2 a5.58,5.58 0 0 0 -1.11,1 a13.76,13.76 0 0 0 -2,4.1 C793.27,401.30666888237 782,406.92666888237 773,414.38666888237003 l-8.22,6.8100000000000005 c-1.12,0.93 -2.36,2.29 -1.81,3.64 a3.27,3.27 0 0 0 1.7200000000000002,1.48 c4.78,2.36 10.39,3.31 14.33,6.91 c1.44,1.32 2.8200000000000003,3.06 4.77,3.16 a9.58,9.58 0 0 0 3,-0.6700000000000006 a10.09,10.09 0 0 1 8.81,1.7600000000000002 a8.57,8.57 0 0 0 2.4,1.6500000000000006 a5.83,5.83 0 0 0 2.2800000000000002,0.14 c2.13,-0.15000000000000008 4.39,-0.3400000000000003 6.3,0.6100000000000003 s3.48,3.19 5.71,3.35 c1.09,0.08000000000000004 2.39,-0.28 3.43,-0.18000000000000008 a1.8,1.8 0 0 1 1.44,0.8 a6.63,6.63 0 0 1 0.47000000000000014,1.7200000000000002 c0.41000000000000014,1.4100000000000001 1.79,2.27 2.6900000000000004,3.43 c1.3800000000000001,1.78 1.58,4.2 1.44,6.45 A27.52,27.52 0 0 1 813,473.86666888237005 a10.84,10.84 0 0 1 -5.39,3 a5,5 0 0 1 -5.34,-2.37 a8.22,8.22 0 0 0 -1,-2.2 c-1.61,-1.77 -5.22,0.11000000000000004 -6.7,-1.78 c-0.92,-1.18 -0.26,-3.07 -1.1400000000000001,-4.29 s-3,-1 -4.63,-1.07 c-1.9100000000000001,-0.1 -3.68,-1 -5.53,-1.47 c-3,-0.78 -6.14,-0.49000000000000016 -9.21,-0.7000000000000003 a55.6,55.6 0 0 1 -7.58,-1.2 l-12.72,-2.6 c-8.1,-1.6500000000000006 -16.23,-3.3200000000000003 -23.94,-6.27 c-2.95,-1.12 -5.92,-2.5 -8,-4.9 a15,15 0 0 1 -3.12,-7.3 c-1.81,-10.67 7.79,-19.79 9,-30.54 c0.43000000000000016,-3.92 2,-7.62 3.48,-11.26 q4.07,-9.76 8.12,-19.53 A17.4,17.4 0 0 1 741,375.92666888237 a25.11,25.11 0 0 1 3.87,-3.77 a26.63,26.63 0 0 0 7.83,-12.84 a3.46,3.46 0 0 1 0.6700000000000006,-1.51 a5.62,5.62 0 0 1 1.1600000000000001,-0.7500000000000003 a3.8,3.8 0 0 0 1.51,-4.45 a2.6,2.6 0 0 0 2.38,-2.42 a4.18,4.18 0 0 1 0.1,-1.62 c0.24000000000000007,-0.52 0.8400000000000003,-0.78 1.19,-1.24 c0.5700000000000003,-0.7500000000000003 0.37000000000000016,-1.8 0.28,-2.74 a8.92,8.92 0 0 1 0,-1.79 a9.19,9.19 0 0 1 2.68,-5.59 c2.39,-2.35 5.79,-1.7400000000000002 9.09,-2.3 a52.07,52.07 0 0 0 9.6,-3.07 a94.31,94.31 0 0 1 27.11,-6.27 A59.19,59.19 0 0 1 835.85,329.92666888237 a15.57,15.57 0 0 1 3.5300000000000002,2 a6.69,6.69 0 0 1 1.85,2.21 a20.6,20.6 0 0 0 1.36,3.07 c1.07,1.46 3.09,1.9300000000000002 4.26,3.31 s1.27,3.71 2.24,5.42 c1.3900000000000001,2.44 4.61,3.5700000000000003 5.57,6.22 c0.30000000000000016,0.8400000000000003 0.3400000000000003,1.7600000000000002 0.56,2.63 c0.54,2.18 2.16,3.9 3.59,5.62 a43.21,43.21 0 0 1 9.68,22 c0.3200000000000002,-5.07 3.73,-9.56 8,-12.36 c1.15,-0.7500000000000003 2.48,-1.58 2.71,-2.94 c0.29000000000000015,-1.7200000000000002 -1.3800000000000001,-3.25 -1.27,-5 a4.9,4.9 0 0 1 1,-2.34 a74,74 0 0 1 6.26,-7.87 c1.23,-1.35 2.6100000000000003,-3 2.1,-4.78 c-0.3900000000000002,-1.33 -1.75,-2.11 -2.5,-3.27 a4.16,4.16 0 0 1 0.1,-4.6 c0.7000000000000003,-0.9500000000000003 1.81,-1.6400000000000001 2.15,-2.77 c0.3900000000000002,-1.33 -0.48000000000000015,-2.77 -0.21000000000000008,-4.14 a5.12,5.12 0 0 1 2.06,-2.67 a17.13,17.13 0 0 1 4.47,-2.94 c2.64,-1 5.58,-0.6300000000000003 8.38,-0.24000000000000007 c4.68,0.6500000000000004 9.93,1.6500000000000006 12.57,5.57 C916,334.50666888237 916.86,338.22666888237 915.6,340.84666888237 z" fill="#65617d" id="svg_8" class=""/><path d="M937.24,331.78000213623045 c-0.06000000000000001,1.55 -0.25,3.2800000000000002 -1.45,4.25 a5.46,5.46 0 0 1 -3.52,0.8300000000000001 H932 c0.41000000000000003,-2.08 2.94,-3.27 3.38,-5.38 a4.76,4.76 0 0 0 -1.1,-3.63 c-2.14,-2.89 -5.58,-4.49 -9,-5.66 a59.62,59.62 0 0 0 -30.06,-2.25 a30.27,30.27 0 0 0 -7.9,2.43 a25.74,25.74 0 0 0 -2.4,1.7000000000000002 a8.45,8.45 0 0 1 -1.12,-3.31 a5.11,5.11 0 0 1 1.1400000000000001,-3.2 a9.59,9.59 0 0 1 6.55,-3.37 a29,29 0 0 1 7.54,0.4 l24.62,3.54 c1.9,0.27 3.81,0.54 5.68,1 a11.14,11.14 0 0 1 4.88,2.14 C937.15,323.71000213623046 937.39,328.0000021362305 937.24,331.78000213623045 z" opacity="0.1" id="svg_9"/><path d="M830.84,454.7200021362305 c-1.51,5.78 -6.05,10.28 -8.38,15.79 c-3.51,8.25 -1.9300000000000002,18.34 -6.890000000000001,25.8 A27.26,27.26 0 0 1 809.8,502.26000213623047 a21.43,21.43 0 0 1 -4,2.6900000000000004 a6.58,6.58 0 0 1 -4.86,0.6000000000000001 c-2.11,-0.7200000000000001 -3.38,-3 -3.59,-5.2 a10.49,10.49 0 0 1 0,-2.17 l0.06000000000000001,0.16000000000000003 c0.8700000000000001,2.1 2.29,4.3 4.53,4.67 a6.13,6.13 0 0 0 4.62,-1.6300000000000001 c3.3,-2.6500000000000004 5.22,-6.6 7.05,-10.41 a43.3,43.3 0 0 0 3.38,-8.63 c0.4,-1.7000000000000002 0.5900000000000001,-3.44 1,-5.14 c1.9,-8.26 8.37,-15 9.8,-23.37 a5.72,5.72 0 0 0 0.08000000000000002,-1.75 a8.84,8.84 0 0 0 -0.8600000000000001,-2.18 a10.8,10.8 0 0 1 -0.7600000000000001,-2.42 c2,0.7200000000000001 4.12,1.83 4.75,3.85 A6.29,6.29 0 0 1 830.84,454.7200021362305 z" opacity="0.1" id="svg_10"/><path d="M815.74,440.3800021362305 a14.49,14.49 0 0 1 -4.51,6.16 a22,22 0 0 1 -9.71,4.2 a9.66,9.66 0 0 1 -5,-0.06000000000000001 c-2.22,-0.77 -3.8200000000000003,-2.85 -6.09,-3.45 c-1.62,-0.44000000000000006 -3.36,-0.05000000000000001 -5,-0.29000000000000004 c-2.95,-0.41000000000000003 -5.24,-2.66 -7.62,-4.46 c-7.29,-5.48 -16.86,-7.25 -24.15,-12.73 a2.24,2.24 0 0 1 -0.78,-0.81 a2.41,2.41 0 0 1 -0.15000000000000002,-1.13 a23,23 0 0 1 2.19,-9.61 a33.53,33.53 0 0 1 4.12,-5.87 c6.53,-8 13.09,-16.06 20.91,-22.81 c3.2800000000000002,-2.83 6.86,-5.47 11,-6.75 c2.3,-0.7100000000000001 6.84,-1.3800000000000001 9.64,-0.18000000000000002 a5.58,5.58 0 0 0 -1.11,1 a13.76,13.76 0 0 0 -2,4.1 C793.27,398.64000213623046 782,404.26000213623047 773,411.7200021362305 l-8.22,6.8100000000000005 c-1.12,0.93 -2.36,2.29 -1.81,3.64 a3.27,3.27 0 0 0 1.7200000000000002,1.48 c4.78,2.36 10.39,3.31 14.33,6.91 c1.44,1.32 2.8200000000000003,3.06 4.77,3.16 a9.58,9.58 0 0 0 3,-0.6700000000000002 a10.09,10.09 0 0 1 8.81,1.7600000000000002 a8.57,8.57 0 0 0 2.4,1.6500000000000001 a5.83,5.83 0 0 0 2.2800000000000002,0.14 c2.13,-0.15000000000000002 4.39,-0.3400000000000001 6.3,0.6100000000000001 s3.48,3.19 5.71,3.35 C813.4,440.64000213623046 814.7,440.26000213623047 815.74,440.3800021362305 z" opacity="0.1" id="svg_11"/><path d="M723.77,304.66000213623045 c-1.9,1.22 -3.92,2.6 -4.7,4.72 c-0.6400000000000001,1.73 -0.3400000000000001,3.71 -1.11,5.39 s-2.5,2.85 -2.88,4.65 c-0.27,1.31 0.26,2.6900000000000004 0,4 a17.24,17.24 0 0 0 -0.55,2.08 c-0.1,1.49 1.18,2.7 2.43,3.5300000000000002 a20.3,20.3 0 0 0 18.17,2 c2.67,-1 5.08,-2.63 7.640000000000001,-3.91 a15.11,15.11 0 0 1 8.23,-2 c1.6500000000000001,0.18000000000000002 3.23,0.78 4.88,1 a5.12,5.12 0 0 0 4.57,-1.36 a5.7,5.7 0 0 0 1,-2.37 c1.3900000000000001,-5.49 0.7600000000000001,-11.31 -0.56,-16.83 s-3.3200000000000003,-10.83 -4.73,-16.32 c-1,-4.07 -1.77,-8.24 -3.44,-12.09 s-4.48,-7.43 -8.41,-8.9 a1.57,1.57 0 0 0 -1,-0.13 a1.7000000000000002,1.7000000000000002 0 0 0 -0.6500000000000001,0.48000000000000004 a30.75,30.75 0 0 0 -6.86,11.54 c-1.57,4.79 -2,9.870000000000001 -3.44,14.68 c-0.6200000000000001,2 -1.42,4.68 -3,6.21 S725.56,303.51000213623047 723.77,304.66000213623045 z" fill="#3f3d56" id="svg_12"/><path d="M761.48,322.3600021362305 a5.83,5.83 0 0 1 -1.05,2.37 a5.07,5.07 0 0 1 -4.57,1.35 c-1.6400000000000001,-0.2 -3.22,-0.81 -4.87,-1 a15.08,15.08 0 0 0 -8.23,2 c-2.56,1.28 -5,2.87 -7.65,3.9 a20.19,20.19 0 0 1 -12.13,0.6900000000000002 a19.57,19.57 0 0 1 -6,-2.64 c-1.26,-0.8200000000000001 -2.5300000000000002,-2 -2.43,-3.5300000000000002 a17.09,17.09 0 0 1 0.55,-2.07 c0.26,-1.31 -0.26,-2.6900000000000004 0,-4 c0.38000000000000006,-1.8 2.12,-3 2.88,-4.66 s0.47000000000000003,-3.6500000000000004 1.1,-5.38 c0.78,-2.13 2.81,-3.5 4.71,-4.73 s4.16,-2.17 5.68,-3.66 A5.640000000000001,5.640000000000001 0 0 0 730,300.26000213623047 a18,18 0 0 0 2.38,-5.51 c1.47,-4.82 1.87,-9.89 3.43,-14.69 a30.81,30.81 0 0 1 6.87,-11.53 a1.51,1.51 0 0 1 0.6400000000000001,-0.48000000000000004 a1.6,1.6 0 0 1 1,0.12000000000000001 c3.92,1.48 6.73,5.06 8.41,8.91 s2.39,8 3.44,12.08 c1.4,5.49 3.41,10.82 4.73,16.33 S762.87,316.8600021362305 761.48,322.3600021362305 z" opacity="0.1" id="svg_13"/><path d="M791.22,200.40000213623046 a20,20 0 0 1 -24.36,-11 a23.72,23.72 0 0 1 0.4,-2.79 c1,-4.6 5.28,-2.92 8.66,-1.7000000000000002 a67.71,67.71 0 0 1 11.75,5.09 a8.43,8.43 0 0 1 2.9,2.46 C792.05,194.6700021362305 791.46,197.6100021362305 791.22,200.40000213623046 z" opacity="0.1" id="svg_14"/><circle cx="785.1799926757812" cy="180.33999633789062" r="20" fill="#be6f72" id="svg_15"/><path d="M839.45,329.8000021362305 c0,1.6600000000000001 -2.25,2.19 -3.92,2.1 c-6,-0.35000000000000003 -11.870000000000001,-2 -17.81,-1.5 c-7.51,0.6800000000000002 -14.41,4.83 -21.94,5.21 c-2.9,0.15000000000000002 -5.85,-0.28 -8.71,0.25 c-3.7,0.6900000000000002 -7,2.94 -10.77,3.26 c-3.27,0.28 -6.5,-0.9500000000000001 -9.77,-0.8200000000000001 A15.7,15.7 0 0 0 760,340.16000213623045 a9.19,9.19 0 0 1 2.68,-5.59 c2.39,-2.35 5.79,-1.7400000000000002 9.09,-2.3 a52.07,52.07 0 0 0 9.6,-3.07 a94.31,94.31 0 0 1 27.11,-6.27 A59.19,59.19 0 0 1 835.85,327.26000213623047 a15.57,15.57 0 0 1 3.5300000000000002,2 A1.57,1.57 0 0 1 839.45,329.8000021362305 z" opacity="0.1" id="svg_16"/><path d="M775.93,216.8600021362305 l-8.1,-3 l-3.42,-1.26 a16.54,16.54 0 0 0 -4.36,-1.1600000000000001 c-3.92,-0.30000000000000004 -7.61,2.31 -9.7,5.640000000000001 s-2.88,7.3 -3.55,11.17 q-1.3800000000000001,7.94 -2.34,15.94 a104.13,104.13 0 0 0 -1.05,14.54 c0.23,12.38 2.85,24.59 5.73,36.64 a128.88,128.88 0 0 1 3.19,16.25 c0.24000000000000002,2.26 0.35000000000000003,4.53 0.5900000000000001,6.8 c0.26,2.55 0.6800000000000002,5.07 1.1,7.6 l2.41,14.37 c3,-2.13 6.41,-4 10.1,-4.11 c3.27,-0.12000000000000001 6.51,1.1 9.77,0.8200000000000001 c3.75,-0.31000000000000005 7.07,-2.56 10.77,-3.25 c2.8600000000000003,-0.53 5.8100000000000005,-0.11000000000000001 8.72,-0.25 c7.52,-0.38000000000000006 14.43,-4.54 21.93,-5.21 c5.95,-0.54 11.86,1.1400000000000001 17.82,1.49 c1.6600000000000001,0.1 3.91,-0.43000000000000005 3.91,-2.1 c0,-1.1600000000000001 -1.1600000000000001,-1.9300000000000002 -2.17,-2.51 a107,107 0 0 1 -13.55,-9.67 c-3.94,-3.12 -7.94,-6.32 -10.65,-10.54 c-6.53,-10.15 -4.29,-23.88 -9.86,-34.59 c-4.53,-8.7 0,-20.1 0,-29.91 c0,-4.890000000000001 0,-9.84 -1.15,-14.59 a61.89,61.89 0 0 0 -2.68,-7.8 l-3.89,-9.85 a1.61,1.61 0 0 0 -0.46,-0.7500000000000001 a1.53,1.53 0 0 0 -0.8900000000000001,-0.27 a9.38,9.38 0 0 0 -6.46,2.07 c-1.83,1.49 -3,3.63 -4.8,5.18 C780.92,216.26000213623047 778.38,217.76000213623047 775.93,216.8600021362305 z" fill="#e3e8f4" id="svg_17"/><path d="M789,211.18000213623048 c0.6400000000000001,-2.74 1.33,-5.59 3.16,-7.73 s5.17,-3.27 7.53,-1.7400000000000002 c2.68,1.7400000000000002 2.79,5.76 5.08,8 c2,1.92 5,2.07 7.72,2.3200000000000003 a52.35,52.35 0 0 1 14.27,3.36 a5.83,5.83 0 0 1 2.37,1.42 c1.25,1.42 1,3.6 1.62,5.37 c0.8500000000000001,2.2800000000000002 3.2,3.73 4.11,6 c1,2.52 0,5.34 -0.8400000000000001,7.93 c-1.51,4.65 -2.46,9.48 -3.93,14.15 s-3.56,9.27 -7,12.79 c-1.52,1.56 -3.7800000000000002,3 -5.78,2.07 l-0.77,5.55 a9.43,9.43 0 0 0 0,3.55 a3.18,3.18 0 0 0 2.3200000000000003,2.46 c0.15000000000000002,0.8600000000000001 1.06,1.27 1.8,1.7400000000000002 a5,5 0 0 1 1.27,7 c-0.6300000000000001,0.8500000000000001 -1.56,1.52 -1.86,2.5300000000000002 c-0.45,1.46 0.6200000000000001,3 1.92,3.8 s2.83,1.17 4.15,1.94 c2.74,1.58 4.21,4.69 5.15,7.71 c0.7000000000000001,2.2800000000000002 1.28,4.75 3,6.41 c0.6600000000000001,0.6300000000000001 1.45,1.11 2.08,1.77 a7.59,7.59 0 0 1 1.79,4.59 a9.11,9.11 0 0 1 -1.3,6 c-2,2.8600000000000003 -5.73,3.71 -9,5 c-5.3100000000000005,2.18 -9.68,6.08 -14.36,9.4 a15.32,15.32 0 0 1 -6.55,3.08 c-3.24,0.43000000000000005 -6.43,-1 -9.69,-1.13 a24.06,24.06 0 0 0 -5.78,0.7600000000000001 l-6,1.3 c0.32000000000000006,-4.65 -2.24,-9.31 -3.67,-13.74 c-2.7,-8.34 -3.2,-17.26 -2.56,-26 s2.42,-17.36 4.18,-25.94 c1.23,-6 1.11,-12.27 3,-18.1 c1.77,-5.61 4.3,-11 5.23,-16.84 C793.18,228.51000213623047 786.86,220.50000213623048 789,211.18000213623048 z" fill="#3f3d56" id="svg_18"/><path d="M834.49,229.6700021362305 a11,11 0 0 1 1.15,3.25 a11.73,11.73 0 0 0 2.5300000000000002,4.76 a16.39,16.39 0 0 1 2.66,3 c0.92,1.7400000000000002 0.5700000000000001,3.8600000000000003 1,5.76 c0.5,2.07 1.9500000000000002,3.87 2.16,6 a11,11 0 0 0 0.17,1.82 c0.6500000000000001,2.42 4.21,3 5,5.42 c0.53,1.57 -0.38000000000000006,3.2800000000000002 -0.21000000000000002,4.93 a4.34,4.34 0 0 1 0.09000000000000002,1.56 a3.17,3.17 0 0 1 -1.1400000000000001,1.46 a23,23 0 0 0 -6.58,11.71 a66.69,66.69 0 0 0 -1.51,13.53 l-3.91,-5.17 a5.94,5.94 0 0 0 -1.56,-1.6 c-0.5,-0.30000000000000004 -1.08,-0.45 -1.59,-0.7500000000000001 c-1.48,-0.8400000000000001 -2.06,-2.62 -2.63,-4.22 a39,39 0 0 0 -7,-12.12 c-1.59,-1.87 -3.44,-3.75 -3.79,-6.18 a11.38,11.38 0 0 1 0.18000000000000002,-3.34 c1,-6.55 2.07,-13.26 5.26,-19.07 c1.49,-2.72 3.42,-5.18 4.85,-7.94 C830.58,230.65000213623046 831.93,225.89000213623046 834.49,229.6700021362305 z" fill="#3f3d56" id="svg_19"/><path d="M735.84,235.96000213623046 a4.57,4.57 0 0 1 -0.6200000000000001,2.4 a3.16,3.16 0 0 1 -3.16,1 a9.14,9.14 0 0 1 -3.16,-1.48 q-4.18,-2.64 -8.36,-5.29 a46.28,46.28 0 0 1 -4.49,-3.08 a40.07,40.07 0 0 1 -5.93,-6.21 c-4.86,-6 -9.16,-12.51 -14.57,-18 c-1.47,-1.5 -3,-2.94 -4.42,-4.51 a65.82,65.82 0 0 1 -5.34,-7.18 c-1.56,-2.31 -3.18,-4.87 -2.91,-7.63 c0.16000000000000003,-1.56 0.91,-3 1.13,-4.55 s-0.37000000000000005,-3.44 -1.87,-3.8600000000000003 a3.38,3.38 0 0 0 -0.54,-0.09000000000000002 a4.08,4.08 0 0 1 -0.8700000000000001,-0.19000000000000003 c-1.3900000000000001,-0.5800000000000001 -1.18,-2.73 -0.18000000000000002,-3.8600000000000003 s2.48,-1.7600000000000002 3.39,-3 a18.09,18.09 0 0 1 1.42,-2.11 a5.41,5.41 0 0 1 2.33,-1.17 a36.06,36.06 0 0 1 17.75,-0.6700000000000002 c1,0.22000000000000003 2.14,0.6200000000000001 2.44,1.59 a2.93,2.93 0 0 1 0,1.44 a32.2,32.2 0 0 0 -0.7600000000000001,6 a10.64,10.64 0 0 0 0.07,1.26 c0.47000000000000003,4.24 3.22,7.83 5.9,11.14 c3.18,3.94 6.41,7.85 9.65,11.75 a46.17,46.17 0 0 0 5.85,6.25 c2,1.6600000000000001 4.59,3 6.15,5.13 c1.27,1.7200000000000002 0.8600000000000001,4.07 1,6.14 A136.28,136.28 0 0 1 735.84,235.96000213623046 z" fill="#3f3d56" id="svg_20"/><path d="M862.84,277.6800021362305 a21,21 0 0 0 2.66,-3.15 a20.78,20.78 0 0 0 2,-4.47 l5.8,-16.45 c0.92,-2.6 1.84,-5.21 3,-7.74 c1.2,-2.73 2.62,-5.36 3.93,-8 A106.7,106.7 0 0 0 888,216.12000213623048 a8.06,8.06 0 0 0 0.31000000000000005,-3.19 c-0.28,-1.73 -1.59,-3.08 -2.84,-4.3100000000000005 a20.79,20.79 0 0 0 -4.26,-3.52 a7,7 0 0 0 -5.34,-0.8600000000000001 c-2.56,0.7500000000000001 -4.17,3.37 -4.76,6 s-0.37000000000000005,5.32 -0.6200000000000001,8 c-0.36000000000000004,3.84 -1.6800000000000002,7.55 -2,11.4 c-0.17,2.23 0,4.48 -0.27,6.7 a24.47,24.47 0 0 1 -3,8.27 a53.69,53.69 0 0 1 -12.93,15.9 a20.79,20.79 0 0 0 -3.88,3.73 a12.17,12.17 0 0 0 -1.87,4.66 a10.73,10.73 0 0 0 0.81,7.57 c1.6300000000000001,2.7800000000000002 4.76,4 7.75,4.62 C859.14,281.9300021362305 860.07,280.5500021362305 862.84,277.6800021362305 z" fill="#be6f72" id="svg_21"/><path d="M785.3,151.3600021362305 a9.33,9.33 0 0 1 9.06,-4.91 a10,10 0 0 1 7.86,7.06 c0.47000000000000003,1.49 0.6600000000000001,3.14 1.48,4.42 c1.24,1.9300000000000002 3.54,2.49 5.26,3.89 a10.53,10.53 0 0 1 3.36,7.44 a22.51,22.51 0 0 1 -1.33,8.41 a26.74,26.74 0 0 0 -1,3.52 c-0.2,1.1600000000000001 -0.22000000000000003,2.34 -0.4,3.5 A11.4,11.4 0 0 1 805,192.26000213623047 a2,2 0 0 1 -1.24,0.45 c-0.78,-0.09000000000000002 -1.26,-1 -1.55,-1.82 c-1.59,-4.59 -1.21,-10.2 -4.14,-13.86 a15.15,15.15 0 0 0 -4.74,-3.5300000000000002 a6.11,6.11 0 0 0 -2.42,-0.91 a6.37,6.37 0 0 0 -3.5,1.28 a21.79,21.79 0 0 1 -6.92,3.06 a8.5,8.5 0 0 1 -7.15,-1.54 c-1.3800000000000001,-1.1400000000000001 -2.39,-2.85 -3.92,-3.74 s-3.13,-0.8400000000000001 -4.640000000000001,-1.45 A6.87,6.87 0 0 1 762,159.72000213623045 c1,-1.2 2.48,-1.8800000000000001 3.37,-3.21 c1.15,-1.7200000000000002 1.05,-4.08 1.6,-6.14 a8.45,8.45 0 0 1 5.09,-5.8100000000000005 a7.15,7.15 0 0 1 7.12,1.49 c1,0.9 1.8,2.06 2.7800000000000002,3 a8,8 0 0 0 7.4,2 " fill="#3f3d56" id="svg_22"/><path d="M801.74,298.5500021362305 a3.88,3.88 0 0 0 -1.06,4.24 c0.22000000000000003,0.47000000000000003 10.54,-1.52 11.63,-1.6700000000000002 c2.72,-0.39000000000000007 7.49,-0.2 9.32,-2.6900000000000004 c3.26,-4.41 -6.84,-3.43 -8.69,-3.27 C809.42,295.46000213623046 804.42,295.9400021362305 801.74,298.5500021362305 z" opacity="0.1" id="svg_23"/><path d="M707.86,169.5500021362305 a32.2,32.2 0 0 0 -0.7600000000000001,6 c-3,0.6100000000000001 -6.12,-0.39000000000000007 -9,-1.3900000000000001 l-8.27,-2.8200000000000003 a2.35,2.35 0 0 0 -3.16,0.5900000000000001 c-1.33,1.3800000000000001 -3.16,4 -5,5.55 a4.08,4.08 0 0 1 -0.8700000000000001,-0.19000000000000003 c-1.3900000000000001,-0.5800000000000001 -1.18,-2.73 -0.18000000000000002,-3.8600000000000003 s2.48,-1.7600000000000002 3.39,-3 a18.09,18.09 0 0 1 1.42,-2.11 a5.41,5.41 0 0 1 2.33,-1.17 a36.06,36.06 0 0 1 17.75,-0.6700000000000002 c1,0.22000000000000003 2.14,0.6200000000000001 2.44,1.59 A2.93,2.93 0 0 1 707.86,169.5500021362305 z" fill="#3f3d56" id="svg_24"/><path d="M707.86,169.5500021362305 a32.2,32.2 0 0 0 -0.7600000000000001,6 c-3,0.6100000000000001 -6.12,-0.39000000000000007 -9,-1.3900000000000001 l-8.27,-2.8200000000000003 a2.35,2.35 0 0 0 -3.16,0.5900000000000001 c-1.33,1.3800000000000001 -3.16,4 -5,5.55 a4.08,4.08 0 0 1 -0.8700000000000001,-0.19000000000000003 c-1.3900000000000001,-0.5800000000000001 -1.18,-2.73 -0.18000000000000002,-3.8600000000000003 s2.48,-1.7600000000000002 3.39,-3 a18.09,18.09 0 0 1 1.42,-2.11 a5.41,5.41 0 0 1 2.33,-1.17 a36.06,36.06 0 0 1 17.75,-0.6700000000000002 c1,0.22000000000000003 2.14,0.6200000000000001 2.44,1.59 A2.93,2.93 0 0 1 707.86,169.5500021362305 z" opacity="0.1" id="svg_25"/><path d="M783.51,359.40000213623046 c1.44,0.48000000000000004 3,1.18 3.49,2.62 l-11.58,-2.94 l-6,-1.53 c-1.06,-0.27 -4.86,-0.5800000000000001 -5.5600000000000005,-1.4100000000000001 c-1,-1.22 2.55,-0.38000000000000006 3.19,-0.29000000000000004 c1.94,0.29000000000000004 3.88,0.5900000000000001 5.8100000000000005,0.9400000000000001 C776.5,357.4400021362305 780,358.51000213623047 783.51,359.40000213623046 z" opacity="0.1" id="svg_26"/><path d="M788,369.65000213623046 c-1,-0.6700000000000002 -3.87,-0.5900000000000001 -5.1,-0.8800000000000001 c-1.8,-0.43000000000000005 -3.5700000000000003,-1 -5.34,-1.55 c-3.59,-1.17 -7.15,-2.5 -10.84,-3.36 c-0.6800000000000002,-0.15000000000000002 -3,-0.19000000000000003 -2.89,-1.05 s2.3200000000000003,-1.1600000000000001 2.87,-1.2 c3.27,-0.24000000000000002 7.35,1.29 10.39,2.38 A45.79,45.79 0 0 1 788,369.65000213623046 z" opacity="0.1" id="svg_27"/><path d="M780.66,350.26000213623047 c-3.67,-1 -7,-3.2800000000000002 -10.78,-3.72 a4.38,4.38 0 0 1 -2.75,-0.8400000000000001 a3.24,3.24 0 0 1 -0.8900000000000001,-1.6 c2.5300000000000002,-0.13 5.47,0.9400000000000001 7.77,1.9500000000000002 a24.45,24.45 0 0 1 3.64,1.94 C778.49,348.5000021362305 779.75,349.97000213623045 780.66,350.26000213623047 z" opacity="0.1" id="svg_28"/><path d="M850.62,260.72000213623045 a17.49,17.49 0 0 0 12.26,19.33 c-0.49000000000000005,2.37 -2.94,3.68 -4.67,5.37 c-2.44,2.37 -3.7,5.92 -6.58,7.72 c-3.21,2 -7.34,1.22 -11,0.38000000000000006 a1.34,1.34 0 0 1 -0.8600000000000001,-0.45 a1.23,1.23 0 0 1 -0.16000000000000003,-0.39000000000000007 c-1.21,-4.43 -2,-9.16 -0.7600000000000001,-13.6 c1,-3.7800000000000002 3.4,-7 5.32,-10.34 S846.27,261.82000213623047 850.62,260.72000213623045 z" fill="#3f3d56" id="svg_29"/><path d="M761.21,203.38000213623047 a26,26 0 0 0 -11,3.35 c-2.24,1.28 -4.54,3 -7.1,2.6900000000000004 c-1.51,-0.17 -3,-1 -4.47,-0.6000000000000001 a8.77,8.77 0 0 0 -2.29,1.36 a2.59,2.59 0 0 1 -2.52,0.4 l-1,13.84 c-0.38000000000000006,5.26 -0.7500000000000001,10.63 0.51,15.76 c0.6500000000000001,2.62 2.08,5 2.24,7.66 s-0.08000000000000002,5.39 0.11000000000000001,8.08 c0.18000000000000002,2.49 0.7300000000000001,4.94 0.8700000000000001,7.43 c0.28,4.7 -0.8800000000000001,9.36 -2,13.93 c-1.6900000000000002,6.74 -2.71,13.63 -6,19.73 c-0.92,1.6900000000000002 -2,3.41 -2,5.33 c0,0.24000000000000002 0,0.47000000000000003 0.06000000000000001,0.7000000000000001 c-1,0.55 -1.9300000000000002,1.07 -2.7800000000000002,1.61 c-1.9,1.23 -3.93,2.6 -4.71,4.73 c-0.6300000000000001,1.73 -0.3400000000000001,3.71 -1.1,5.38 s-2.5,2.8600000000000003 -2.88,4.66 c-0.27,1.31 0.25,2.6900000000000004 0,4 a17.09,17.09 0 0 0 -0.55,2.07 c-0.1,1.5 1.17,2.71 2.43,3.5300000000000002 a19.57,19.57 0 0 0 6,2.64 L729,307.96000213623046 h0 a191.09,191.09 0 0 0 13.53,-31.47 a67.66,67.66 0 0 1 3.91,-10.36 a48.68,48.68 0 0 0 3,-5.88 c0.91,-2.52 1,-5.25 1.44,-7.91 a55.37,55.37 0 0 1 2.35,-9.13 c1.08,-3.21 2.33,-6.41 2.55,-9.78 c0.33000000000000007,-4.82 -1.42,-9.91 0.44000000000000006,-14.37 a19.11,19.11 0 0 1 3.05,-4.59 c2.58,-3.16 4.93,-6.47 7.51,-9.63 C765.44,203.41000213623045 763.21,203.26000213623047 761.21,203.38000213623047 z" fill="#3f3d56" id="svg_30"/><g opacity="0.1" id="svg_31"><path d="M789.39,148.07000213623047 l-1.25,0.09000000000000002 L788,148.26000213623047 A7.38,7.38 0 0 0 789.39,148.07000213623047 z" id="svg_32"/><path d="M812.27,168.83000213623046 a26.94,26.94 0 0 1 -1.28,5.84 a26.74,26.74 0 0 0 -1,3.52 c-0.2,1.1600000000000001 -0.22000000000000003,2.34 -0.4,3.5 A11.4,11.4 0 0 1 805,189.26000213623047 a2,2 0 0 1 -1.24,0.45 c-0.78,-0.09000000000000002 -1.26,-1 -1.55,-1.82 c-1.59,-4.59 -1.21,-10.2 -4.14,-13.86 a15.15,15.15 0 0 0 -4.74,-3.5300000000000002 a6.11,6.11 0 0 0 -2.42,-0.91 a6.37,6.37 0 0 0 -3.5,1.28 a21.79,21.79 0 0 1 -6.92,3.06 a8.5,8.5 0 0 1 -7.15,-1.54 c-1.3800000000000001,-1.1400000000000001 -2.39,-2.85 -3.92,-3.74 s-3.13,-0.8400000000000001 -4.640000000000001,-1.45 a6.83,6.83 0 0 1 -3.9,-4.46 a2.87,2.87 0 0 1 -0.08000000000000002,-0.38000000000000006 a7,7 0 0 0 0.08000000000000002,3.38 a6.83,6.83 0 0 0 3.9,4.46 c1.51,0.6100000000000001 3.21,0.6200000000000001 4.640000000000001,1.45 s2.54,2.6 3.92,3.74 a8.5,8.5 0 0 0 7.15,1.54 a21.79,21.79 0 0 0 6.92,-3.06 a6.37,6.37 0 0 1 3.5,-1.28 a6.11,6.11 0 0 1 2.42,0.91 A15.15,15.15 0 0 1 798,177.06000213623048 c2.93,3.66 2.55,9.27 4.14,13.86 c0.29000000000000004,0.8300000000000001 0.77,1.73 1.55,1.82 A2,2 0 0 0 805,192.26000213623047 a11.4,11.4 0 0 0 4.6,-7.6 c0.18000000000000002,-1.1600000000000001 0.2,-2.34 0.4,-3.5 a26.74,26.74 0 0 1 1,-3.52 a22.51,22.51 0 0 0 1.33,-8.41 C812.31,169.1100021362305 812.29,168.97000213623045 812.27,168.83000213623046 z" id="svg_33"/></g><path d="M749,249.07000213623047 l-0.6800000000000002,9.13 c-0.1,1.24 -2.47,30.76 -19.95,65.26 c-15,29.59 -44.19,68.13 -99.3,89.79 q-6.45,2.55 -13.39,4.76 l-5.16,-16.2 a189.43,189.43 0 0 0 37.22,-16.28 c28.09,-16.22 49.93,-39.37 65.16,-69.16 A185.77,185.77 0 0 0 730,266.07000213623047 h-62.7 v-17 z" fill="#6c63ff" id="svg_34"/><path d="M622.32,413.26000213623047 c55.1,-21.66 84.3,-60.19 99.29,-89.78 c17.48,-34.5 19.86,-64 19.95,-65.26 l0.6800000000000002,-9.13 h7 l-0.6800000000000002,9.13 c-0.09000000000000002,1.24 -2.47,30.76 -19.95,65.26 c-15,29.59 -44.19,68.12 -99.29,89.78 q-6.45,2.55 -13.4,4.77 l-0.6800000000000002,-2.13 Q618.86,414.6100021362305 622.32,413.26000213623047 z" fill="#fff" opacity="0.1" id="svg_35"/><path d="M512,401.8100021362304 l-5.16,16.2 q-6.95,-2.22 -13.4,-4.77 c-55.1,-21.66 -84.3,-60.19 -99.29,-89.78 c-17.48,-34.5 -19.86,-64 -19.95,-65.26 l-0.6800000000000002,-9.13 h81.66 v17 H392.47 a185.88,185.88 0 0 0 17.15,50.3 c15.23,29.79 37.06,52.94 65.15,69.15 A189,189 0 0 0 512,401.8100021362304 z" fill="#6c63ff" id="svg_36"/><path d="M500.17999999999995,413.26000213623047 c-55.1,-21.66 -84.3,-60.19 -99.29,-89.78 c-17.48,-34.5 -19.86,-64 -19.95,-65.26 l-0.6800000000000002,-9.13 h-7 l0.6800000000000002,9.13 c0.09000000000000002,1.24 2.47,30.76 19.95,65.26 c15,29.59 44.19,68.12 99.29,89.78 q6.45,2.55 13.4,4.77 l0.6800000000000002,-2.13 Q503.65,414.6100021362305 500.17999999999995,413.26000213623047 z" fill="#fff" opacity="0.1" id="svg_37"/><path d="M655.59,558.4100021362304 v91.67 H466.92 V558.4100021362304 l6,-8 c61.14,-21.7 73.53,-78.29 76,-100.68 a92.05,92.05 0 0 0 0.6300000000000001,-9.32 h23.33 a92.05,92.05 0 0 0 0.6300000000000001,9.32 c2.51,22.39 14.9,79 76,100.68 z" fill="#6c63ff" id="svg_38"/><rect x="466.9200134277344" y="558.4099731445312" width="188.6699981689453" height="11.5" opacity="0.1" id="svg_39"/><path d="M482.92,550.4100021362304 c61.14,-21.7 73.53,-78.29 76,-100.68 a92.05,92.05 0 0 0 0.6300000000000001,-9.32 h-10 a92.05,92.05 0 0 1 -0.6300000000000001,9.32 c-2.51,22.39 -14.9,79 -76,100.68 l-6,8 v91.67 h10 V558.4100021362304 z" fill="#fff" opacity="0.1" id="svg_40"/><path d="M438.26,249.07000213623047 h16.92 v17 H439.76 Q438.85,257.6700021362305 438.26,249.07000213623047 z" opacity="0.1" id="svg_41"/><path d="M512,401.8100021362304 l-5.16,16.2 q-6.95,-2.22 -13.4,-4.77 a179.15,179.15 0 0 1 -18.67,-27.72 A189,189 0 0 0 512,401.8100021362304 z" opacity="0.1" id="svg_42"/><path d="M610.51,401.8100021362304 a189.43,189.43 0 0 0 37.22,-16.28 A179.86,179.86 0 0 1 629.06,413.26000213623047 q-6.45,2.55 -13.39,4.76 z" opacity="0.1" id="svg_43"/><path d="M684.24,249.07000213623047 q-0.5900000000000001,8.6 -1.5,17 H667.33 v-17 z" opacity="0.1" id="svg_44"/><path d="M573.55,449.7300021362305 a64.64,64.64 0 0 1 -24.59,0 a92.05,92.05 0 0 0 0.6300000000000001,-9.32 h23.33 A92.05,92.05 0 0 0 573.55,449.7300021362305 z" opacity="0.1" id="svg_45"/><path d="M440.26,220.91000213623045 c0.43000000000000005,126.06 54.43,228 121,228 s120.56,-101.94 121,-228 z" fill="#6c63ff" id="svg_46"/><path d="M461.76,220.91000213623045 h-21.5 c0.43000000000000005,126.06 54.43,228 121,228 a65.35,65.35 0 0 0 10.75,-0.91 C510.47,437.7200021362305 462.17,340.1100021362305 461.76,220.91000213623045 z" fill="#fff" opacity="0.1" id="svg_47"/><rect x="497.0899963378906" y="593.5" width="128.3300018310547" height="33" fill="#3f3d56" id="svg_48"/><polygon points="503.09 598 625.42 598 625.42 593.5 497.09 593.5 497.09 626.5 503.09 626.5 503.09 598" fill="#fff" opacity="0.1" id="svg_49"/><path d="M371.82,342.6200021362305 c-2.31,-0.77 -15.91,-11.53 -16.94,-16.4 s7.19,-50.24 7.19,-50.24 s-0.7600000000000001,0 -2,-0.15000000000000002 l0,-0.7300000000000001 l1.6900000000000002,-59.6 s6.93,-40 -6.16,-37.67 s-4.88,37.67 -4.88,37.67 s-1.49,17.94 -2.54,23.32 c-1,5.19 -5.58,26.33 -2.46,32.9 a7.16,7.16 0 0 0 0.38000000000000006,0.6800000000000002 h0 s0.52,22.55 -5.13,25.63 c-5.39,2.93 -7.63,17.68 -7.82,19 l-0.29000000000000004,-0.12000000000000001 h0 a15.67,15.67 0 0 1 -4.17,-3.81 c-0.12000000000000001,-0.15000000000000002 -0.21000000000000002,-0.31000000000000005 -0.32000000000000006,-0.47000000000000003 a22,22 0 0 0 -0.5900000000000001,-29.87 a22.18,22.18 0 0 0 -6.19,-4.52 a14.2,14.2 0 0 0 -1.33,-5.52 c-2.6,-5.5600000000000005 -17,-12.83 -27.23,-13 c-4.72,-0.14 -8.59,1.2 -10,4.890000000000001 c-0.7200000000000001,1.87 -0.5,4 -0.8,5.94 c-0.6000000000000001,4 -3.17,7.13 -6.47,9.620000000000001 a40.56,40.56 0 0 0 -4.3100000000000005,-4.15 c-3.34,-2.56 -10,-11 -10,-11 s-20.79,-21.53 -22.33,-27.43 S216.81,196.26000213623047 212.19,202.43000213623048 s15.91,33.06 15.91,33.06 S232,245.26000213623047 235,248.56000213623048 S261,285.26000213623047 261,285.26000213623047 l1.1,2.2800000000000002 c-4.86,2.56 -9.3,5.82 -10.870000000000001,10.9 c-2.3,7.48 2.73,15 6.21,22 c6.78,13.66 7.75,31.08 -1,43.56 C248.60000000000002,375.02000213623046 235,380.26000213623047 222.27,384.84000213623045 a33.63,33.63 0 0 0 21.6,7.17 c-2.94,8.52 -13.36,11.34 -22.24,12.92 c4.66,4.48 11.33,6.11 17.73,7.1 a53.12,53.12 0 0 0 9.49,0.7500000000000001 l0.78,0 l0.78,-0.06000000000000001 a27.16,27.16 0 0 0 3.23,-0.41000000000000003 c4.62,-0.9400000000000001 9.11,-3.46 11.47,-7.54 c2,-3.49 2.7,-8.25 6.33,-10 a8.09,8.09 0 0 1 3,-0.7100000000000001 h-0.11000000000000001 c0.6800000000000002,0 1.3800000000000001,0 2.06,0 l15.13,0.15000000000000002 c0.6300000000000001,0 1.28,0 1.9300000000000002,0 c4.27,-0.1 8.83,-0.8400000000000001 11,-4.37 a12.12,12.12 0 0 0 1.37,-5.55 c0.32000000000000006,-4.79 0,-9.72 0.13,-14.55 c1.29,8.79 2.64,22.49 -0.5700000000000001,27.55 A47,47 0 0 1 296,407.4600021362305 a18,18 0 0 0 -2.48,2.54 c-0.49000000000000005,0.35000000000000003 -0.78,0.54 -0.78,0.54 l-0.31000000000000005,0.93 a17.61,17.61 0 0 0 -2.44,5.66 a3.93,3.93 0 0 0 -0.19000000000000003,1.61 c0.35000000000000003,0.7100000000000001 -2.5,3.64 -1.6700000000000002,4.87 c-7.12,8.35 -8.47,21 -8.47,21 l-13,19.74 c-6.68,17.55 -16.68,19.35 -16.68,19.35 s-23.49,-15.76 -24.13,-16.53 s-9.620000000000001,-4.62 -9.620000000000001,-4.62 a10.18,10.18 0 0 0 -4.62,-4.22 c-3.08,-1.28 -3.34,-6 -3.34,-6 c-0.38000000000000006,-11.15 -6.93,-12 -6.93,-12 c-5.28,-0.45 -9.31,0.49000000000000005 -12.41,2.21 l-0.9400000000000001,0.07 c-4.54,0.37000000000000005 -10,0.78 -16,1.18 c-16.69,1.1 -20.66,11.91 -20.66,11.91 s-2.05,2.31 0.6400000000000001,4.8100000000000005 s19.91,0 20.64,-0.06000000000000001 a11.18,11.18 0 0 1 -3.92,-0.27 c2.71,-0.1 6.44,-0.2 9.620000000000001,-0.2 h0.77 a41.62,41.62 0 0 0 -0.29000000000000004,5.08 c0,3.2 8.85,5.25 8.85,5.25 l26.95,24 s16.94,7.57 27.72,18.46 S262.62,514.2600021362305 262.62,514.2600021362305 c11.41,-2.8200000000000003 44.24,-42.51 44.27,-42.55 v0 c0,1.1600000000000001 0.6900000000000002,39.76 2,47.51 h0 a5.15,5.15 0 0 0 0.29000000000000004,1.15 c1.54,3.33 -0.52,12.43 -1.4100000000000001,16.27 a45.2,45.2 0 0 0 -0.6500000000000001,9.74 s-12.31,47 -11.29,51.13 s-6.67,23.32 -6.67,23.32 v16 l1.34,-0.07 a8.64,8.64 0 0 0 -0.48000000000000004,0.8 l-0.09000000000000002,0.17 s8.21,1.79 13.73,1.28 s15,4.25 15,4.25 s3.21,1.52 13.09,2.16 s9.88,-4.36 9.88,-4.36 c-1.13,-6.8100000000000005 -16.74,-9.09 -17.22,-9.16 c-1.26,-0.79 -2.44,-1.6500000000000001 -3.41,-2.39 l-0.2,-0.16000000000000003 a4.28,4.28 0 0 0 0.17,-0.46 c1.6700000000000002,-6.8 -7.57,-9.75 -7.57,-9.75 v-1.6600000000000001 c6,-3.08 7.19,-24.22 7.19,-24.22 s9,-26.14 10.26,-30.5 s0,-10.89 0,-10.89 l0.9,-5.640000000000001 s1.9300000000000002,-3.84 1.9300000000000002,-4.61 a11.39,11.39 0 0 1 2.18,-5.38 c1.4100000000000001,-1.6700000000000002 -1.54,-5.640000000000001 -1.54,-5.640000000000001 l2.5700000000000003,-6.66 v-7.3100000000000005 l6,-26.52 s6.29,-30.89 4.11,-41 s2.5700000000000003,-15.25 2.5700000000000003,-15.25 a12.64,12.64 0 0 1 -1.32,0.6000000000000001 a38.21,38.21 0 0 0 1.55,-4.26 l13.5,1.6700000000000002 v0.2 h4.87 s-1.54,-19 -1.54,-26.66 S371.82,370.26000213623047 371.82,370.26000213623047 S374.13,343.39000213623046 371.82,342.6200021362305 zm-59.93,-22.18 c0,0.7500000000000001 -0.07,1.53 -0.12000000000000001,2.33 l-0.27,0.41000000000000003 l-0.5,-0.42000000000000004 l-0.6100000000000001,0.9500000000000001 l-0.18000000000000002,0.09000000000000002 c-1.32,-0.6800000000000002 -2,-4.57 -2.95,-3.73 l-0.13,0.11000000000000001 c-0.21000000000000002,-0.24000000000000002 -0.42000000000000004,-0.31000000000000005 -0.6400000000000001,-0.11000000000000001 l-0.2,0.17 c0,-0.29000000000000004 0,-0.5900000000000001 0,-0.8900000000000001 a22.5,22.5 0 0 0 5.6,0.7100000000000001 C311.9,320.1900021362305 311.89,320.32000213623047 311.89,320.4400021362305 zm44.9,88.48 h0.29000000000000004 l-0.48000000000000004,1.26 C356.66,409.76000213623047 356.72,409.3500021362305 356.79,408.92000213623044 zM307.5,635.6900021362304 l-1.84,-0.46 l1,-0.17 l0.93,0.6100000000000001 l0.11000000000000001,0.08000000000000002 zm18.8,-2.6900000000000004 c-0.6100000000000001,-0.32000000000000006 -1.23,-0.6900000000000002 -1.83,-1.07 C324.67,632.0400021362304 325.46,632.4500021362305 326.3,633.0000021362305 z" fill="url(#5967c94a-14d1-46d5-9842-c9a5147905d0)" id="svg_50"/><polygon points="363.43 390.03 351.32 421.59 354.26 421.59 342.87 430.67 363.43 433.23 363.43 390.03" fill="#f86d70" id="svg_51"/><polygon points="363.43 390.03 351.32 421.59 348.27 420.77 342.87 430.67 363.43 433.23 363.43 390.03" opacity="0.1" id="svg_52"/><polygon points="344.44 410.22 363.43 410.22 370.4 352.87 344.44 352.87 344.44 410.22" fill="#f86d70" id="svg_53"/><polygon points="344.44 410.22 363.43 410.22 370.4 352.87 344.44 352.87 344.44 410.22" opacity="0.1" id="svg_54"/><path d="M307.35,366.45000213623047 l4.1,-0.6900000000000002 l9.42,-1.6 S349.16,357.78000213623045 355,357.26000213623047 a36.47,36.47 0 0 0 10.24,-2.92 c1.53,-0.6600000000000001 2.5,-1.1600000000000001 2.5,-1.1600000000000001 l-10.19,-18.61 l-15.81,-11.72 s-10,-2.13 -14.23,-7.95 a9.37,9.37 0 0 1 -1.31,-8.88 c2.58,-8 -15.41,7.65 -15.41,7.65 s0.17,3.75 0,8.53 c0,0.9400000000000001 -0.09000000000000002,1.92 -0.16000000000000003,2.92 c0,0.6600000000000001 -0.09000000000000002,1.32 -0.16000000000000003,2 c-0.44000000000000006,4.75 -1.34,9.64 -3.12,12.56 C303,346.82000213623047 307.35,366.45000213623047 307.35,366.45000213623047 z" fill="#fbbebe" id="svg_55"/><path d="M310.79,322.60000213623044 h0.4 c0.7200000000000001,0 1.3,-1.53 2,-1.6 c5.63,-0.54 10.77,-1.7200000000000002 14.34,-5.71 a9.38,9.38 0 0 1 -1.31,-8.870000000000001 c2.58,-8 -15.41,7.640000000000001 -15.41,7.640000000000001 S311,317.82000213623047 310.79,322.60000213623044 z" opacity="0.1" id="svg_56"/><path d="M288.89,299.9200021362305 a21.91,21.91 0 0 0 21.92,21.92 c0.7200000000000001,0 1.4300000000000002,0 2.14,-0.1 a21.92,21.92 0 1 0 -24.06,-21.82 z" fill="#fbbebe" id="svg_57"/><path d="M282.16,266.65000213623046 c-0.7200000000000001,1.86 -0.5,3.94 -0.79,5.91 c-1.07,7.11 -8.3,11.37 -14.84,14.35 s-13.92,6.51 -16,13.38 c-2.2800000000000002,7.43 2.7,14.88 6.16,21.85 c6.74,13.58 7.7,30.9 -1,43.32 c-7.73,11 -21.2,16.22 -33.88,20.8 a33.4,33.4 0 0 0 21.45,7.14 c-2.91,8.47 -13.26,11.28 -22.08,12.84 c4.63,4.46 11.26,6.08 17.61,7.06 c4.63,0.7200000000000001 9.38,1.19 14,0.26 s9,-3.44 11.38,-7.5 c2,-3.47 2.68,-8.2 6.29,-9.95 a11.38,11.38 0 0 1 5.13,-0.7500000000000001 l15,0.16000000000000003 c4.67,0 10.2,-0.36000000000000004 12.61,-4.35 a12,12 0 0 0 1.36,-5.52 c0.6500000000000001,-9.84 -1.24,-20.24 2.81,-29.22 c1.22,-2.71 -6.61,-7 -5.79,-9.870000000000001 c2.8200000000000003,-9.870000000000001 3.5300000000000002,-17.64 3.5,-27.91 c0,-7.95 5.17,-14.8 9.44,-21.51 s7.84,-15.18 4.47,-22.38 C315.19,266.7300021362305 286.65,255.06000213623048 282.16,266.65000213623046 z" fill="#3f3d56" id="svg_58"/><path d="M302.13,632.8100021362304 l3.8200000000000003,2.5300000000000002 l0.5900000000000001,0.39000000000000007 l0.11000000000000001,0.07 l4.53,3 l10.58,1.78 l9.3,-0.6400000000000001 s2.68,-5.6 -1.53,-5.47 a8.76,8.76 0 0 1 -3.84,-1.11 l-0.5800000000000001,-0.29000000000000004 h0 c-0.6100000000000001,-0.32000000000000006 -1.22,-0.6800000000000002 -1.82,-1.06 h0 c-1.25,-0.79 -2.43,-1.6500000000000001 -3.38,-2.38 c-1.4,-1.08 -2.33,-1.9 -2.33,-1.9 z" fill="#fbbebe" id="svg_59"/><path d="M306,635.3400021362305 l0.5900000000000001,0.39000000000000007 l0.11000000000000001,0.07 l4.53,3 l10.58,1.78 l9.3,-0.6400000000000001 s2.68,-5.6 -1.53,-5.47 a8.76,8.76 0 0 1 -3.84,-1.11 c0.7400000000000001,0.5800000000000001 1.36,1.21 1.42,1.7400000000000002 c0.17,1.4300000000000002 -6.88,4 -6.88,4 l-9.94,-2.63 s-1.6900000000000002,-0.48000000000000004 -4,-1.08 l-0.22000000000000003,-0.06000000000000001 z" opacity="0.1" id="svg_60"/><path d="M289,637.7800021362305 s8.15,1.78 13.63,1.27 S317.55,643.2600021362305 317.55,643.2600021362305 s3.19,1.5 13,2.14 s9.81,-4.34 9.81,-4.34 c-1.12,-6.77 -16.62,-9 -17.1,-9.1 h0 l0,0 h0 c0.19000000000000003,0.1 1,0.51 1.82,1.06 h0 c1.1,0.7200000000000001 2.29,1.6600000000000001 2.38,2.42 c0.17,1.42 -6.88,4 -6.88,4 l-9.94,-2.62 s-1.6900000000000002,-0.49000000000000005 -4,-1.09 l-0.22000000000000003,0 A85.26,85.26 0 0 0 296,633.5800021362305 c-4.28,-0.46 -6.47,3.18 -6.92,4 A1.19,1.19 0 0 0 289,637.7800021362305 z" fill="#3f3d56" id="svg_61"/><path d="M160.54,457.9500021362305 l4.33,3.3200000000000003 s1.26,-0.06000000000000001 3.14,-0.12000000000000001 l0.6000000000000001,0 c2.6900000000000004,-0.1 6.4,-0.2 9.55,-0.2 a30.32,30.32 0 0 1 6.09,0.3400000000000001 c2.16,0.7600000000000001 6,-12.36 6,-12.36 l-4.34,-1 l-1.44,-0.3400000000000001 l-1,-0.24000000000000002 l-3.5300000000000002,-0.8300000000000001 l-10.7,1.22 l-7.52,4.84 z" fill="#fbbebe" id="svg_62"/><path d="M160.54,457.9500021362305 l4.33,3.3200000000000003 s1.26,-0.06000000000000001 3.14,-0.12000000000000001 a3.79,3.79 0 0 1 -2,-1.79 c-2.8,-7.77 11.09,-11.09 11.09,-11.09 l6.47,-0.28 l1.26,-0.06000000000000001 l1,0 l-1.44,-0.3400000000000001 l-1,-0.24000000000000002 l-3.5300000000000002,-0.8300000000000001 l-10.7,1.22 l-7.52,4.84 z" opacity="0.1" id="svg_63"/><path d="M152,461.4600021362305 c2.62,2.42 19.78,0 20.5,-0.06000000000000001 a10.8,10.8 0 0 1 -3.89,-0.27 a4.29,4.29 0 0 1 -3,-2.15 c-2.8,-7.78 11.09,-11.09 11.09,-11.09 l6.47,-0.28 l1.25,-0.06000000000000001 l15.73,-0.6800000000000002 l0.7600000000000001,-4.33 s-5.11,0.48000000000000004 -13.13,1.12 c-4.51,0.37000000000000005 -10,0.78 -15.93,1.17 c-16.57,1.1 -20.51,11.85 -20.51,11.85 S149.33,458.9800021362305 152,461.4600021362305 z" fill="#3f3d56" id="svg_64"/><path d="M344.45,273.76000213623047 a4.43,4.43 0 0 0 0.38000000000000006,0.6800000000000002 l3.8200000000000003,5.6 l9.94,1 l0.11000000000000001,-3.94 l1.6700000000000002,-59.28 s6.88,-39.76 -6.12,-37.47 s-4.84,37.47 -4.84,37.47 s-1.48,17.84 -2.52,23.2 C345.88,246.20000213623047 341.35,267.26000213623047 344.45,273.76000213623047 z" fill="#fbbebe" id="svg_65"/><path d="M322.14,421.0000021362305 l2.83,4.84 l6.33,10.83 s11.48,4.21 14.42,1 c1.61,-1.75 3.35,-7.86 4.57,-13 c1,-4.16 1.6700000000000002,-7.67 1.6700000000000002,-7.67 z" fill="#fbbebe" id="svg_66"/><path d="M322.14,421.0000021362305 l2.83,4.84 a3.33,3.33 0 0 0 0.48000000000000004,-0.51 c3.2,-4.08 17.29,-0.8700000000000001 24.84,-0.6100000000000001 c1,-4.16 1.6700000000000002,-7.67 1.6700000000000002,-7.67 z" opacity="0.1" id="svg_67"/><path d="M178.16,460.9300021362304 a30.32,30.32 0 0 1 6.09,0.3400000000000001 c2.16,0.7600000000000001 6,-12.36 6,-12.36 l-5.78,-1.36 l15.73,-0.6800000000000002 l0.7600000000000001,-4.33 s-5.11,0.48000000000000004 -13.13,1.12 a16.5,16.5 0 0 0 -4.37,3.6500000000000004 l-0.24000000000000002,0.30000000000000004 C179.87,451.7200021362305 178.63,457.02000213623046 178.16,460.9300021362304 z" opacity="0.1" id="svg_68"/><path d="M302.13,632.8100021362304 l4.41,2.92 c6.58,-1.19 12.59,-3.06 13.3,-6 a1,1 0 0 0 0,-0.14 c-1.4,-1.08 -2.33,-1.9 -2.33,-1.9 z" opacity="0.1" id="svg_69"/><path d="M289.09,637.6100021362305 a152.62,152.62 0 0 0 17.34,-1.86 A85.26,85.26 0 0 0 296,633.5800021362305 C291.73,633.1200021362305 289.54,636.7600021362305 289.09,637.6100021362305 z" opacity="0.1" id="svg_70"/><path d="M178.64,465.9800021362305 c0,3.19 8.79,5.23 8.79,5.23 l26.77,23.83 s16.82,7.52 27.52,18.35 s20.14,1.53 20.14,1.53 c11.34,-2.8 44,-42.31 44,-42.31 s0.7600000000000001,45.12 2.29,48.43 s-0.51,12.36 -1.4,16.19 a45,45 0 0 0 -0.6400000000000001,9.68 s-12.23,46.77 -11.21,50.85 s-6.63,23.2 -6.63,23.2 v15.93 s29.95,-1.15 31.6,-7.9 s-7.51,-9.69 -7.51,-9.69 v-1.6600000000000001 c6,-3.06 7.13,-24.08 7.13,-24.08 s8.93,-26 10.2,-30.33 s0,-10.84 0,-10.84 l0.8900000000000001,-5.6 s1.9100000000000001,-3.83 1.9100000000000001,-4.59 a11.34,11.34 0 0 1 2.17,-5.35 c1.4,-1.6600000000000001 -1.53,-5.61 -1.53,-5.61 l2.55,-6.63 v-7.26 l6,-26.38 s6.25,-30.72 4.08,-40.79 s2.55,-15.16 2.55,-15.16 c-10.23,5.36 -15.39,-6.57 -17.08,-11.7 c-0.43000000000000005,-1.32 -0.6400000000000001,-2.2 -0.6400000000000001,-2.2 s-14.05,-5.18 -27.13,-3.94 a31.23,31.23 0 0 0 -7.79,1.6500000000000001 c-14.53,5.23 -16.82,26.89 -16.82,26.89 l-12.870000000000001,19.63 c-6.63,17.46 -16.57,19.24 -16.57,19.24 s-23.32,-15.67 -24,-16.44 s-9.56,-4.59 -9.56,-4.59 a10.1,10.1 0 0 0 -4.59,-4.2 c-3.06,-1.28 -3.31,-6 -3.31,-6 c-0.38000000000000006,-11.09 -6.88,-12 -6.88,-12 C178.51,439.4800021362305 178.64,462.80000213623043 178.64,465.9800021362305 z" fill="#3f3d56" id="svg_71"/><rect x="994.9000244140625" y="1373.0899963378906" width="13.760000228881836" height="42.689998626708984" transform="rotate(-180 658.52001953125,888.3800048828125) " fill="#f86d70" id="svg_72"/><rect x="994.9000244140625" y="1373.0899963378906" width="13.760000228881836" height="42.689998626708984" transform="rotate(-180 658.52001953125,888.3800048828125) " opacity="0.1" id="svg_73"/><path d="M344.44,273.6700021362305 a0.6200000000000001,0.6200000000000001 0 0 0 0,0.09000000000000002 a4.43,4.43 0 0 0 0.38000000000000006,0.6800000000000002 l3.8200000000000003,5.6 l9.94,1 l0.11000000000000001,-3.94 C355.59,276.8600021362305 348.53,276.01000213623047 344.44,273.6700021362305 z" opacity="0.1" id="svg_74"/><path d="M344.83,274.4400021362305 s0.51,22.42 -5.1,25.48 s-7.79,19 -7.79,19 s17,11.18 20.79,16.1 s12.49,16.64 10.7,19.44 s4.34,15.55 4.34,15.55 s-11.22,22.94 -8.67,31.61 s2.8,31.6 2.8,31.6 h4.85 s-1.53,-18.86 -1.53,-26.51 s5.09,-34.92 5.09,-34.92 s2.3,-26.76 0,-27.52 s-15.8,-11.47 -16.82,-16.32 s7.14,-50 7.14,-50 S350.18,277.5000021362305 344.83,274.4400021362305 z" fill="#f86d70" id="svg_75"/><path d="M308.12,357.02000213623046 a21.82,21.82 0 0 0 3.33,8.74 l9.42,-1.6 S349.16,357.78000213623045 355,357.26000213623047 a36.47,36.47 0 0 0 10.24,-2.92 a45.16,45.16 0 0 0 -12.65,-20.75 L349,330.26000213623047 a60.15,60.15 0 0 0 -18.1,-11.57 c0.42000000000000004,0.35000000000000003 30.1,25.69 23.6,30.66 s-24,-7.13 -24,-7.13 l-19.9,-17.1 l-0.7200000000000001,-0.6200000000000001 l-1.15,1.79 a16.69,16.69 0 0 1 1.71,0.8200000000000001 a29.28,29.28 0 0 1 14,17.4 C328.53,358.26000213623047 308.12,357.02000213623046 308.12,357.02000213623046 z" opacity="0.1" id="svg_76"/><path d="M302,420.7400021362305 s18.86,10.45 23.44,4.59 c1,-1.29 3.11,-1.85 5.74,-2 c-0.43000000000000005,-1.32 -0.6400000000000001,-2.2 -0.6400000000000001,-2.2 s-14.05,-5.18 -27.13,-3.94 C302.55,419.3500021362305 302,420.7400021362305 302,420.7400021362305 z" fill="#444053" id="svg_77"/><path d="M310.68,324.52000213623046 L331.3,342.26000213623047 s17.43,12.14 24,7.13 s-23.61,-30.67 -23.61,-30.67 h0 A61,61 0 0 1 349.78,330.26000213623047 l3.59,3.33 c9.44,8.75 11.57,8.75 11.89,21.61 c0.08000000000000002,3.17 -1,7.72 -1.83,8.54 c-3.06,3 -5.2,24.79 -4.73,27.34 S353,415.64000213623046 355,421.76000213623047 s-25,-3.06 -29.57,2.81 S302,419.9800021362305 302,419.9800021362305 s10.45,-26.77 13,-28.55 s5.61,-15.55 0,-21.92 s-6.11,-12.49 -6.11,-12.49 s20.4,1.26 16.31,-12.49 a28.86,28.86 0 0 0 -15.68,-18.22 z" fill="#e8e8f0" id="svg_78"/><path d="M338.2,369.64000213623046 s-7.91,14.91 -18.14,18.78 c-0.33000000000000007,0.12000000000000001 -0.6500000000000001,0.23 -1,0.33000000000000007 C308.38,392.0000021362305 339,374.26000213623047 338.2,369.64000213623046 z" opacity="0.1" id="svg_79"/><path d="M227.58,237.7300021362305 s3.8200000000000003,9.69 6.88,13 s25.74,36.45 25.74,36.45 l1.92,4 l1.6500000000000001,3.41 l14.53,-1.53 l1,-5.86 l-0.56,-0.6800000000000002 c-1.46,-1.75 -5.44,-6.45 -8.11,-8.5 c-3.31,-2.54 -9.94,-10.95 -9.94,-10.95 s-20.64,-21.42 -22.17,-27.28 s-22.18,-41 -26.76,-34.92 S227.58,237.7300021362305 227.58,237.7300021362305 z" fill="#fbbebe" id="svg_80"/><g opacity="0.1" id="svg_81"><path d="M269.74,395.3600021362305 a11.39,11.39 0 0 0 -5.13,0.7400000000000001 c-3.6,1.75 -4.28,6.48 -6.28,9.95 c-2.34,4.06 -6.8,6.57 -11.39,7.5 a25.44,25.44 0 0 1 -2.7600000000000002,0.38000000000000006 a31.34,31.34 0 0 0 8.76,-0.38000000000000006 c4.59,-0.93 9.05,-3.44 11.39,-7.5 c2,-3.47 2.68,-8.2 6.28,-9.95 a8,8 0 0 1 3,-0.7000000000000001 z" id="svg_82"/><path d="M305.26,318.65000213623046 c0,-7.95 5.17,-14.8 9.43,-21.51 s7.84,-15.18 4.47,-22.38 c-2.88,-6.15 -20.24,-14.4 -30.26,-12.77 c9.81,1.27 21.9,7.73 24.26,12.77 c3.37,7.2 -0.21000000000000002,15.67 -4.47,22.38 s-9.45,13.56 -9.43,21.51 c0,10.26 -0.6900000000000002,18 -3.51,27.91 c-0.81,2.85 7,7.16 5.8,9.86 c-4.06,9 -2.16,19.38 -2.81,29.22 a12.15,12.15 0 0 1 -1.37,5.52 c-2,3.29 -6.1,4.14 -10.09,4.32 l3.49,0 c4.66,0 10.19,-0.36000000000000004 12.6,-4.35 a12.15,12.15 0 0 0 1.37,-5.52 c0.6500000000000001,-9.84 -1.25,-20.23 2.81,-29.22 c1.22,-2.7 -6.61,-7 -5.8,-9.86 C304.57,336.6900021362305 305.28,328.91000213623045 305.26,318.65000213623046 z" id="svg_83"/></g><path d="M262.12,291.16000213623045 l1.6500000000000001,3.41 l14.53,-1.53 l1,-5.86 l-0.56,-0.6800000000000002 C277.19,287.26000213623047 265.58,292.85000213623044 262.12,291.16000213623045 z" opacity="0.1" id="svg_84"/><path d="M315.77,329.4900021362305 s-3.5700000000000003,-5.6 -5.61,-4.08 s-2.83,-4.59 -4,-3.5700000000000003 s-4.58,3.8600000000000003 -6,-0.11000000000000001 c-1.11,-3.16 -13.19,-23.15 -18.09,-31.19 c-1.26,-2.08 -2.05,-3.36 -2.05,-3.36 s-13.76,6.88 -17.07,4.59 v4.84 l2.8,0.26 l15,28 s4.72,7.51 4.4,10.13 s6.05,14.09 7.07,14.85 s12,13.51 12,13.51 s5.61,27.53 0.7600000000000001,35.18 s-13.25,13.25 -13.25,13.25 s-2.5300000000000002,7.39 -2.16,8.16 s-2.94,4.08 -1.4100000000000001,5.1 s3.5700000000000003,8.15 3.5700000000000003,8.15 s7.14,-11.47 11,-13.25 s8.8,-25.24 8.8,-25.24 s1.4100000000000001,-13.82 1.52,-22.74 S312.71,329.4900021362305 315.77,329.4900021362305 z" opacity="0.1" id="svg_85"/><path d="M315,329.4900021362305 s-3.56,-5.6 -5.6,-4.08 s-2.84,-4.59 -4,-3.5700000000000003 s-4.57,3.8600000000000003 -6,-0.11000000000000001 c-1.12,-3.16 -13.2,-23.15 -18.09,-31.19 l-2.05,-3.36 s-13.76,6.88 -17.08,4.59 v4.84 l2.81,0.26 l15,28 s4.73,7.51 4.4,10.13 s6,14.09 7.07,14.85 s12,13.51 12,13.51 s5.61,27.53 0.77,35.18 A46.88,46.88 0 0 1 295,408.76000213623047 a17.84,17.84 0 0 0 -6,9.620000000000001 a3.8,3.8 0 0 0 -0.18000000000000002,1.6 c0.37000000000000005,0.7600000000000001 -2.94,4.08 -1.4100000000000001,5.1 S291,433.26000213623047 291,433.26000213623047 s7.14,-11.47 11,-13.25 s8.81,-25.24 8.81,-25.24 s1.4,-13.82 1.52,-22.74 S312,329.4900021362305 315,329.4900021362305 z" fill="#f86d70" id="svg_86"/><path d="M280.08,445.4700021362305 s10.71,2 15,5.09 s-16.31,-4.84 -16.31,-4.84 z" opacity="0.1" id="svg_87"/><path d="M305.83,472.6100021362305 S317,481.92000213623044 315,490.3300021362305 s-7.16,29.57 -7.16,29.57 z" opacity="0.1" id="svg_88"/><path d="M208.14,454.7100021362305 s-15.74,1.7200000000000002 -14.72,3.7600000000000002 s14.72,-1.8800000000000001 14.72,-1.8800000000000001 z" opacity="0.1" id="svg_89"/><path d="M329,532.1300021362305 s1,1.27 -4.84,0 s-1.53,-5.19 -1.53,-5.19 z" opacity="0.1" id="svg_90"/><path d="M327,549.7200021362305 s-8,1.27 -12.29,0 S327,549.7200021362305 327,549.7200021362305 z" opacity="0.1" id="svg_91"/><path d="M310.54,618.5400021362304 s-1.4,-1.53 -8.41,1.27 s-9.81,2.93 -11.85,2 S310.54,618.5400021362304 310.54,618.5400021362304 z" opacity="0.1" id="svg_92"/><path d="M318.32,452.54000213623044 l-9.94,13.83 S313.73,454.26000213623047 318.32,452.54000213623044 z" opacity="0.1" id="svg_93"/><path d="M299,325.41000213623045 s-0.43000000000000005,4.59 -6.84,6.38 s-7.63,3.24 -7.63,3.24 " opacity="0.1" id="svg_94"/><path d="M282.34,292.14000213623046 s-8.46,6 -17.29,4.73 " opacity="0.1" id="svg_95"/><path d="M288.78,420.6100021362305 s2.47,1.55 8.4,-5.23 " opacity="0.1" id="svg_96"/><path d="M350.37,348.72000213623045 c0.24000000000000002,-1.24 -0.6200000000000001,-2.39 -1.4300000000000002,-3.36 l-1.6600000000000001,-2 a7.7,7.7 0 0 0 -1.09,-1.12 c-1,-0.77 -2.2800000000000002,-1 -3.3200000000000003,-1.6900000000000002 " opacity="0.1" id="svg_97"/><path d="M887.29,0.11000213623046307 S803.1,-4.969997863769535 813,54.03000213623048 c0,0 -2,10.43 7.48,15.16 c0,0 0.15000000000000002,-4.37 8.64,-2.88 a39.5,39.5 0 0 0 9.15,0.44000000000000006 a19.06,19.06 0 0 0 11.18,-4.62 h0 s23.67,-9.78 32.87,-48.46 c0,0 6.8100000000000005,-8.44 6.54,-10.61 l-14.21,6.07 s4.86,10.25 1,18.77 c0,0 -0.46,-18.4 -3.19,-18 c-0.55,0.09000000000000002 -7.38,3.55 -7.38,3.55 s8.35,17.85 2.05,30.83 c0,0 2.39,-22 -4.66,-29.54 l-10,5.84 s9.76,18.44 3.14,33.49 c0,0 1.7000000000000002,-23.08 -5.25,-32.07 l-9.06,7.07 s9.17,18.18 3.58,30.66 c0,0 -0.7300000000000001,-26.87 -5.54,-28.9 c0,0 -7.93,7 -9.14,9.86 c0,0 6.28,13.2 2.38,20.16 c0,0 -2.39,-17.9 -4.35,-18 c0,0 -7.9,11.86 -8.72,20 c0,0 0.3400000000000001,-12.09 6.8100000000000005,-21.12 c0,0 -7.640000000000001,1.31 -12.1,6.26 c0,0 1.23,-8.38 14.05,-9.11 c0,0 6.53,-9 8.27,-9.55 c0,0 -12.74,-1.06 -20.47,2.36 c0,0 6.8,-7.91 22.81,-4.3100000000000005 l8.95,-7.3100000000000005 s-16.78,-2.29 -23.9,0.24000000000000002 c0,0 8.19,-7 26.31,-1.9 l9.74,-5.82 s-14.31,-3.08 -22.83,-2 c0,0 9,-4.85 25.69,0.41000000000000003 l7,-3.13 s-10.48,-2.06 -13.55,-2.39 s-3.23,-1.17 -3.23,-1.17 a36.35,36.35 0 0 1 19.69,2.19 S887.55,1.0400021362304699 887.29,0.11000213623046307 z" fill="#6c63ff" opacity="0.1" id="svg_98"/><path d="M783.45,15.120002136230482 s-38,-2.3 -33.55,24.36 c0,0 -0.8900000000000001,4.72 3.37,6.86 c0,0 0.07,-2 3.91,-1.31 a17.51,17.51 0 0 0 4.13,0.2 a8.57,8.57 0 0 0 5.05,-2.09 h0 s10.7,-4.41 14.86,-21.89 c0,0 3.07,-3.8200000000000003 2.95,-4.8 l-6.42,2.74 s2.2,4.640000000000001 0.47000000000000003,8.49 c0,0 -0.21000000000000002,-8.32 -1.44,-8.12 c-0.25,0 -3.34,1.6 -3.34,1.6 s3.7800000000000002,8.07 0.93,13.94 c0,0 1.08,-9.94 -2.11,-13.35 l-4.52,2.64 s4.42,8.33 1.42,15.13 c0,0 0.77,-10.43 -2.37,-14.49 L762.7,28.26000213623047 s4.14,8.22 1.62,13.85 c0,0 -0.33000000000000007,-12.14 -2.51,-13.05 c0,0 -3.58,3.16 -4.13,4.46 c0,0 2.84,6 1.08,9.1 c0,0 -1.08,-8.09 -2,-8.12 c0,0 -3.56,5.36 -3.94,9 a19.55,19.55 0 0 1 3.08,-9.55 a10.76,10.76 0 0 0 -5.47,2.83 s0.56,-3.7800000000000002 6.35,-4.12 c0,0 3,-4.06 3.74,-4.3100000000000005 c0,0 -5.76,-0.48000000000000004 -9.25,1.07 c0,0 3.07,-3.58 10.31,-2 l4,-3.3 s-7.58,-1 -10.8,0.11000000000000001 c0,0 3.7,-3.16 11.89,-0.8600000000000001 l4.4,-2.63 s-6.46,-1.4 -10.32,-0.8900000000000001 c0,0 4.07,-2.2 11.61,0.18000000000000002 l3.15,-1.4100000000000001 s-4.74,-0.9400000000000001 -6.13,-1.08 s-1.46,-0.53 -1.46,-0.53 a16.39,16.39 0 0 1 8.9,1 S783.57,15.54000213623047 783.45,15.120002136230482 z" fill="#6c63ff" opacity="0.1" id="svg_99"/><ellipse cx="916.1900024414062" cy="643.9600219726562" rx="40.209999084472656" ry="6.800000190734863" fill="#6c63ff" id="svg_100"/><path d="M932.82,632.8400021362305 a11.64,11.64 0 0 0 3.83,-5.79 c0.5,-2.29 -0.48000000000000004,-5 -2.68,-5.890000000000001 c-2.46,-0.9400000000000001 -5.09,0.77 -7.08,2.49 s-4.28,3.6900000000000004 -6.88,3.3200000000000003 a10.5,10.5 0 0 0 3.24,-9.81 a4.12,4.12 0 0 0 -0.9,-2 c-1.37,-1.46 -3.84,-0.8400000000000001 -5.48,0.31000000000000005 c-5.2,3.66 -6.65,10.73 -6.68,17.08 c-0.52,-2.29 -0.08000000000000002,-4.68 -0.09000000000000002,-7 s-0.6600000000000001,-5 -2.6500000000000004,-6.23 a7.91,7.91 0 0 0 -4,-0.9400000000000001 c-2.33,-0.09000000000000002 -4.94,0.15000000000000002 -6.53,1.86 c-2,2.12 -1.47,5.68 0.25,8 s4.35,3.81 6.77,5.42 a15,15 0 0 1 4.83,4.61 a4.16,4.16 0 0 1 0.36000000000000004,0.8300000000000001 h14.66 A40.77,40.77 0 0 0 932.82,632.8400021362305 z" fill="#6c63ff" id="svg_101"/><path d="M1292.6587519611212,282.42666888237 a5.5078275546993325,1.5 0 0 0 0,-3 a5.5078275546993325,1.5 0 0 0 0,3 z" fill="#6c63ff" id="svg_102" class=""/></g></svg>